<?xml version="1.0" encoding="UTF-8"?>
<svg id="Layer_1" xmlns="http://www.w3.org/2000/svg" xmlns:xlink="http://www.w3.org/1999/xlink" version="1.1" viewBox="0 0 2048 2048">
  <!-- Generator: Adobe Illustrator 29.7.1, SVG Export Plug-In . SVG Version: 2.1.1 Build 8)  -->
  <defs>
    <style>
      .st0 {
        fill: url(#linear-gradient2);
        stroke: url(#linear-gradient3);
      }

      .st0, .st1, .st2, .st3, .st4 {
        stroke-miterlimit: 10;
      }

      .st1 {
        fill: url(#linear-gradient6);
        stroke: url(#linear-gradient7);
      }

      .st2 {
        fill: url(#linear-gradient8);
        stroke: url(#linear-gradient9);
      }

      .st3 {
        fill: url(#linear-gradient4);
        stroke: url(#linear-gradient5);
      }

      .st4 {
        fill: url(#linear-gradient);
        stroke: url(#linear-gradient1);
      }

      .st5 {
        fill: #fff;
      }
    </style>
    <linearGradient id="linear-gradient" x1="1336.24" y1="275.13" x2="946.37" y2="1578.09" gradientUnits="userSpaceOnUse">
      <stop offset="0" stop-color="#8c5e00"/>
      <stop offset=".28" stop-color="#c59028"/>
      <stop offset=".31" stop-color="#d4ab4e"/>
      <stop offset=".35" stop-color="#e4c572"/>
      <stop offset=".39" stop-color="#efd98e"/>
      <stop offset=".43" stop-color="#f8e8a2"/>
      <stop offset=".46" stop-color="#fdf1ae"/>
      <stop offset=".5" stop-color="#fff4b3"/>
      <stop offset=".54" stop-color="#f8e9a4"/>
      <stop offset=".62" stop-color="#e8cd7d"/>
      <stop offset=".73" stop-color="#cea03e"/>
      <stop offset=".76" stop-color="#c59028"/>
      <stop offset="1" stop-color="#9e7010"/>
    </linearGradient>
    <linearGradient id="linear-gradient1" x1="580.58" y1="929.92" x2="1700.75" y2="929.92" gradientUnits="userSpaceOnUse">
      <stop offset="0" stop-color="#fff"/>
      <stop offset="1" stop-color="#231f20"/>
    </linearGradient>
    <linearGradient id="linear-gradient2" x1="1616.19" y1="349.43" x2="1328.92" y2="1688.3" gradientUnits="userSpaceOnUse">
      <stop offset="0" stop-color="#8c5e00"/>
      <stop offset=".28" stop-color="#c59028"/>
      <stop offset=".31" stop-color="#d4ab4e"/>
      <stop offset=".35" stop-color="#e4c572"/>
      <stop offset=".39" stop-color="#efd98e"/>
      <stop offset=".43" stop-color="#f8e8a2"/>
      <stop offset=".46" stop-color="#fdf1ae"/>
      <stop offset=".5" stop-color="#fff4b3"/>
      <stop offset=".54" stop-color="#f8e9a4"/>
      <stop offset=".62" stop-color="#e8cd7d"/>
      <stop offset=".73" stop-color="#cea03e"/>
      <stop offset=".76" stop-color="#c59028"/>
      <stop offset="1" stop-color="#9e7010"/>
    </linearGradient>
    <linearGradient id="linear-gradient3" x1="1412.36" y1="1095.73" x2="1501.14" y2="1095.73" xlink:href="#linear-gradient1"/>
    <linearGradient id="linear-gradient4" x1="1585.07" y1="342.75" x2="1297.8" y2="1681.62" xlink:href="#linear-gradient2"/>
    <linearGradient id="linear-gradient5" x1="1414.97" y1="922.99" x2="1505.41" y2="922.99" xlink:href="#linear-gradient1"/>
    <linearGradient id="linear-gradient6" x1="1544.79" y1="334.11" x2="1257.52" y2="1672.98" xlink:href="#linear-gradient2"/>
    <linearGradient id="linear-gradient7" x1="1355.12" y1="1123.52" x2="1392.56" y2="1123.52" xlink:href="#linear-gradient1"/>
    <linearGradient id="linear-gradient8" x1="1629.52" y1="352.29" x2="1342.26" y2="1691.16" xlink:href="#linear-gradient2"/>
    <linearGradient id="linear-gradient9" x1="1436.94" y1="1010.92" x2="1538.13" y2="1010.92" xlink:href="#linear-gradient1"/>
  </defs>
  <path class="st5" d="M910.61,225.62c-28.78,11.12-50.15,34.71-72.13,55.36l-66.91-26.45c49.09-67.72,124.87-115.43,208.87-124.93,103.93-11.75,200.38,23.55,276.88,92.79,66.85,60.5,105.54,144.92,124.1,232.22l81.3-121.97c-31.18-4.44-61.7-1.16-92.73,1.79-12.29-20.46-24.87-42.15-35.65-63.85,73.97-14.78,147.96-12.27,218.21,16.11,171,69.06,280.41,269.62,230.57,450.86-10.89,39.6-29.28,75.95-46.46,112.95l128.34-35.3c-17.71-22.38-37.17-42.6-59.62-60.3l12.59-73.44c3.21-.92,3.66,1.05,5.44,2.03,108.12,59.31,175,210.64,167.86,330.7-9.87,166.05-149.62,312.24-323.1,279.3l67.41,128.38c18.27-31.22,26.07-67.13,33.64-102.22,22.91-7.21,46.24-13.59,67.97-24.02-2.98,129.24-79.49,255.48-199.68,306.4-122.25,51.79-249.7-6.08-341.74-89.16-32.5-29.33-60.14-67.14-93-95.31-31.66-27.14-66.21-38.96-106.03-20.11-3.99-7.54-28.09-59.67-25.54-63.17,49.25-19.16,97.94-17.43,143.94,8.85,49.97,28.54,84.24,81.47,126.62,119.48,45.49,40.8,105.1,76.97,165.9,87.66l-87.77-175.46c-1.74.26-5.8-.46-6.35,0-1.72,1.43-10.27,37.74-11.41,43.19-3.82,18.22-6.89,36.54-5.76,55.25-2.42,3.27-60.39-48.89-61.59-52.86-4.33-14.3,13.49-64.29,19.95-79.74,29.56-70.64,88.05-125.55,167.12-132.47,117.12-10.26,202.71,64.81,313.05-20.78,35.39-27.45,61.59-69.67,75.06-112.16l-136.98,35.26c-3.54,2.72-1.1,2.28-.05,4.36,9.32,18.46,30.69,37.31,36.19,59.91-.27,3.62-53.59,29.14-62.51,26.85-31.75-64.42-96.35-108.77-115.89-179.91-33.09-120.5,65.79-205.68,89.47-314.95,13.33-61.51,5.12-123.84-18.94-181.44-1.97-4.71-9.93-26.97-14.89-25.74l-91.4,140.77c-3.68,2.13-53.15-4.36-53.09-7.05l116.7-178.69c1.34-3.73-33.92-42.06-39.74-45.87-2.59-1.7-7.4-4.73-10.28-3.04l-136.1,209.53c-2.64,7.72-34.96.8-37.64-1.08-3.8-2.67-2.56-21.18-.39-26.24l137.1-207.55c1.02-3.51.72-5.41-1.79-8.13-2.89-3.13-25.16-13.9-30.66-16.4-3.83-1.74-25.37-11.21-26.86-10.16l-114.95,175.28c1.8,29.12,10.03,58.26,11.95,87.76l-67.11-6.7-3.19-3.23c-16.89-105.15-33.29-220.11-106.21-302.52-15.77-17.82-44.1-43.6-64.64-55.2-2.39-1.35-3.85-3.25-7.08-2.55v115.56c10.15-.52,52.06-39.64,56.64-38.53,10.87,14.41,24.65,30.72,31.9,47.33,1.94,4.44,5.46,9.44,1.52,13.77-84.34,61.77-172.36,139-285.25,103.06-58.39-18.59-98.25-66.12-147.81-98.29-53.57-34.77-111.21-48.84-174.87-50.87l50.29,98.42,16.04-64.2c3.13-3.09,64.79,17.4,66,22.68-25.93,95.67-42.95,213.03-136.8,267.12-116.35,67.06-219.98-39.77-339.29-9.73-97.02,24.42-166.66,125.96-174.12,222.83l5.22-.1,175.75-72.56c1.96-2.08.18-3.9-.75-5.89-8.41-17.9-21.7-34.94-29.32-54.17-2.39-6.04-14.64-44.57-13.72-47.79,2-7.01,57.99-24.09,63.7-20.38,9.25,36.15,24.7,69.82,46.51,100.07,15.1,20.94,34.17,38.86,50,59.14,91.17,116.79,115.08,236.13,138.8,379.07,9.96,60.02,7.21,100.32,43.55,153.33,12.66,18.46,30.99,38.83,50.94,48.54l14.92-178.32,47.15-18.55-17.07,204.38c.44,4.98-1.23,12.37.26,16.81,1.88,5.57,54.51,17.14,57.5,14.21l17.38-249.05,1.83-2.45,44.98-7.44-19.27,261.07c19.51,1.34,38.54-3.18,57.56-6.65l19.48-263,19.06.23c2.53,26.56,17.86,56.11,19.54,82.08,2.32,35.88-5.68,94.73-8.65,132.75-.84,10.74-2.54,22.51-4.25,33.17,2.86,2.62,54.98-23.52,60.99-29.9l26.55,62.74c-144.9,95.1-371.27,77.99-460.27-84.89-36.26-66.36-36.24-144.68-49.48-218.02-6.84-37.93-15.6-75.63-25.12-112.93l-186.07,110.17c54.59,38.95,124.19,52.86,190.49,46.9,4.12,2.86,11.72,53.53,11.86,61.21.04,1.9,1.73,3.58-1.13,5.4-101.33,13.65-206.04-21.75-282.61-87.79-124.13-107.06-174.17-283.94-102.07-435.97,47.61-100.4,155.48-179.89,270.07-172.86,43.38,2.66,84.82,18.44,127.34,25.65l-84.54-169.03-23.33,25.85c-20.38,28.41-36.37,59.42-44.34,93.7-24.64-.63-48.55,6.08-72.46,10.97,13.69-104.79,86.72-196.89,178.31-246.45,146.42-79.23,343.85-61.63,469.05,49.57,6.55.55,1.04-2.32,1.04-3.19v-131.67ZM1013.33,197.8c-8.81-.14-53.28,3.88-55.36,9.9l-.4,183.89c-1.18,9.96,7.18,11.94,14.34,15.62,12.31,6.32,27.52,10.61,41.42,11.01v-220.42ZM1058.27,199.94v214c10.02,1.43,55.05-20.15,57.43-27.1,0-57.97,1.79-116.86-.92-174.29-18.47-5.48-36.56-14.14-56.51-12.6h0ZM589.08,333.07c-5.89-.23-52.04,9.21-54.2,12.29-1.11,1.58-1.17,3.17-.59,4.95l107.75,211.24c15.41-19.69,24.86-43.48,32.61-67.05-26.18-47.92-48.74-97.81-73.96-146.22-2.09-4.02-7.78-15.06-11.62-15.21h.01ZM488,363.1c-2.87-.23-47.63,26.62-49.38,29.4l-.74,2.9,107.83,213.29c8.24,6.99,56.72-7.54,58.67-14.26.96-3.34-2.4-9.43-3.7-12.88-38.81-68.25-68.34-141.84-106.18-210.52-1.24-2.25-4.11-7.74-6.5-7.93h0ZM384.09,893.18c2.34-3.46-11.77-20.43-14.95-24.43-8.45-10.66-19.71-20.75-27.61-32.29l-7.43-3.12-208.71,85.83c3.93,30.77,10.6,62.73,26.57,89.45l232.13-115.44h0ZM1911.95,916.64c2.67-3.78-17.37-54.22-22.22-57.83-1.13-.84-1.94-1.51-3.43-.97l-177.47,47.22c-10.15,20.84-16.4,44.1-14.98,67.39l218.1-55.82h0ZM408.82,930.19l-235.66,121.54c2.18,9.88,49.52,67.21,58.12,68.45,3.11.45,6.18-.26,8.93-1.73l199.81-121.28c3.07-4-6.4-23.88-9.08-29.75-2.48-5.44-18.63-36.95-22.13-37.23h.01ZM1922.81,1020.61c2.25-13.32,0-38.58,0-53.5,0-.75-2.34-3.41-2.39-5.15l-212.22,53.74c-2.6.72-3.66,2.06-3.69,4.8-.08,7.34,29.62,50.93,35.27,51.72l179.25-46.3c1.65-.56,3.57-4.01,3.79-5.31h-.01ZM1657.56,1509.51c2.3.55,4.24.13,6.31-.98,4.77-2.56,24.6-19.91,28.92-24.58,5.25-5.69,15.14-15.6,10.09-22.96l-94.53-177.27c-6.76-6.69-66.01-11.87-68.59-9.5l117.79,235.3h0ZM1621.08,1535.24l-126.62-244.63-4.96-5.19c-10.02,1.66-46.64,31.95-45.04,40.3l116.48,225.28c7.17,6.54,50.09-12.06,60.13-15.77h.01Z"/>
  <path class="st4" d="M908.47,1060.2c-9.15-171.85,67.79-331.4,229.67-400.54,167.78-71.67,291.47-8.88,456.2,8.91,35.11,3.79,70.75,5.27,105.91,2.17.08,8.61-11.57,65.27-16.4,66.43-135.58,8.27-263.71-49.66-398.75-45.02l62.05,92.01v-64.2c8.28-.54,65.59,6.63,66.47,9.88,3.65,82.93-6.75,165.92-38.68,242.64-2.68,1.99-51.35-28.28-57.53-33.52,6.97-27.59,22.88-55.08,20.72-84.79l-107.8-155.26c-3.09-.74-58.87,16.42-60.69,19.03-.68.98-.12,3.38.3,4.77l124.8,181.41-4.98,18.46-17.48,32.78-146.82-214.16c-6.77-.99-45.26,29.89-50.13,37.53l68.52,106.02h-52.43c-4.97,0-42.82-65.96-49.25-68.46-2.78-1.08-6.7,6.46-8.32,8.74-5.2,7.35-27.88,45.6-26.6,51.7l135.54,198.45c6.26,5.32,28-3.89,35.87-6.9,5.36-2.05,27.42-10.14,27.37-15.52l-87.86-129.49h54.57l75.12,104.77c20.69-12.59,33.5-33.26,49.27-50.97l56.38,33.04c-32.14,50.46-82.73,91.06-137.6,114.69-116.03,49.98-234.19,18.32-355.6,29.6-85.96,7.99-153.23,31.2-232.13,63.19-5.3,2.15-36.75,17.89-38.58,15.97,2.03-19.82-7.72-42.47-8.47-61.31-.1-2.47-.28-4.49,1.97-6.14,64.19-28.66,129.13-53.83,198.69-66.68,39.24-7.24,83.48-12.26,123.34-13.62,62.63-2.13,124.8,8.13,187.34,2.23l-106.97-156.21c-8.83,43.03-12.59,86.53-10.73,130.54-2.31.82-4.67-2.13-5.34-2.13h-60.99l.03-.04Z"/>
  <path class="st5" d="M993.86,1178.12c32.89,116.64,72.77,245.73,143.53,345.44,37.38,52.67,85.83,78.41,127.42,125.1,40.17,45.09,76.89,104.82,104.87,158.34,8.83,16.89,29.65,54.49,33.79,71.05,9.28,37.13-37.8,58.24-60.58,28.5-39.23-79.24-79.7-162.1-141.19-226.88-18.11-19.08-37.33-31.48-56.71-48.15-74.59-64.17-123.67-165.58-158.94-256.21-25.11-64.53-46.53-131.8-60.46-199.53l68.27,2.35h0Z"/>
  <path class="st5" d="M1353.58,1588.79l85.72,41.58c8.05,18.52,17.22,36.54,27.33,53.99,19.51,33.69,55.68,80.7,69.27,114.76,15.31,38.4-32.62,63.4-57.88,34.34-46.88-78.71-101.36-154.51-124.44-244.68h0Z"/>
  <g>
    <path class="st0" d="M1445.65,1054.8c-3.76-3.35-10.78-7.07-15.77-6.81h0c-15.07.8-20.93,17.54-14.33,30.51,5.42,10.66,45.2,51.87,55.68,59.85,4.1,3.12,7.23,6.79,12.8,4.31,2.84-1.26,19.53-20.13,16.16-24.55l-54.54-63.31Z"/>
    <path class="st3" d="M1446.68,966.05l56.41-63.48c.87-.99,2.37-1.98,1.62-2.89-6.05-7.31-19.78-23.64-21.37-23.36h0c-13.35,13.96-63.83,53.34-67.22,69.88-4.28,20.88,13.31,30.46,30.56,19.85Z"/>
    <path class="st1" d="M1391.99,1087.07c.93-21.47-36.52-20.61-36.14,0,.28,14.93.12,66.12-.23,81.31-.05,2.17.98,7.38,3.32,7.38h33.07c.29-6.31-.79-16.27-.94-25.47-.36-21.75,0-41.75.92-63.22Z"/>
    <path class="st2" d="M1451,991.77c-7.56-.29-14.23,12.5-13.51,19.78,2.6,26.42,48.02,16.67,77.12,17.17,9.54.17,15.43-.04,17.67-.61,1.89-.35,3.95-1.2,4.09-3,.48-6.3,1.26-23.01,1.26-29.11h0c-25.89-.74-61.56-3.27-86.63-4.23Z"/>
  </g>
</svg>