<?xml version="1.0" encoding="UTF-8"?>
<svg id="Layer_1" xmlns="http://www.w3.org/2000/svg" version="1.1" viewBox="0 0 2048 2048">
  <!-- Generator: Adobe Illustrator 29.7.1, SVG Export Plug-In . SVG Version: 2.1.1 Build 8)  -->
  <defs>
    <style>
      .st0 {
        fill: #fff;
      }

      .st1 {
        fill: maroon;
      }

      .st2 {
        fill: #939598;
      }
    </style>
  </defs>
  <rect class="st1" x="-.47" y="2.26" width="2048" height="2048"/>
  <g>
    <path class="st0" d="M1172.59,337.11l56.35-39.63c8.63,4.19,41.88,56.83,39.2,60.58-35.44,19.01-65.35,46.28-98.63,68.51-55.09,36.79-107.08,56.09-177.28,41.83-81-16.47-129.67-83.53-199.91-119.34-46.37-23.64-96.42-37.85-148.9-38.04l50.94,100.61c3.3.34,2,.02,2.45-1.85,1.75-7.33,11.27-58.42,13.81-60.15,16.51,1.96,34.06,6.34,49.51,12.98,2.06.88,14.31,6.3,14.75,6.98,1.84,2.93-5.45,24.51-6.65,29.6-25.45,109.65-41.22,222.74-167.07,259.01-67.86,19.56-112.76-.41-175.44-19.58-26.83-8.21-53.3-16.04-81.7-15.81-.16-10.48.34-21.11,1.4-31.53.87-8.4,2.72-24.53,5.16-32.11,2.29-7.08,13.24-5.08,20.14-4.68,41.47,2.42,78.97,21.15,118.63,31.04l-88.21-176.38c-1.48-1.12-4.67,2.72-5.59,3.7-40.89,43.97-65.64,102.46-75.07,159.46-.15.88-2.52.71-2.62,1.57-6.6,59.44,4.76,108.81,22.31,164.2,22.52,71.1,38.55,142.01-14.57,204.88,4.97,23.27,1.99,46.31-7.81,67.87-27.01,44.31-58.62,85.69-86.67,129.36l51.96,27.42c1.35.47,1.78-.55,2.55-1.28,3.85-3.64,11.74-16.63,15.44-21.91,31.38-44.92,62.05-90.37,92.95-135.61,1.69-121.1,65.55-223.33,180.42-265.54,65.02-23.9,137.07-12.97,197.75-48.21,44.26-25.7,68.5-63.71,81.05-112.73,7.12-27.78,5.25-62.98,45.43-58.89,41.32,4.21,26.79,57.75,19.29,83.86-28.14,97.91-100.59,163.24-201.03,181.57-46.68,8.52-89.22,6.53-133.99,26.26-79.49,35.02-120.4,111.9-117.23,195.91,1.38,36.66,15.33,72.32,31.08,105.61-5.37,17.96-12.62,35.35-16.24,53.84-10.05-1.32-26.57,4.09-33.42-4.24-17.96-21.84-30.79-61.45-39.74-88.21-.46-1.38-.71-4.5-2.48-4.31l-74.56,109.9c.5,2.25,23.06,5.76,27.11,6.47,38.68,6.68,77.7,9.04,117,7.85l-3.91,70.63c-101.75.93-207.34-17.71-290.88-78.32-111.71-81.05-157.71-213.6-134.62-349.06,17.9-105.04,83.45-198.49,174.16-253.16,2.52-.32,1.61.1,1.84,1.83,1.52,11.37-.63,26.56-.05,38.58.6,12.4,3.65,25.58,3.55,38.19-13.53,11.79-27.08,23.27-38.92,36.91l-24.2,32.31,109.3,17.39c-6.87-27.49-16.1-54.48-19.71-82.76-25.97-202.9,102.09-373.34,297.19-420.5,130.4-31.51,245.91,5.57,349.75,84.11,7.11,5.38,13.24,13.2,21.85,16.65l-.65-147.8c-30.42,14.41-56,36.62-80.37,59.46l-63.64-29.76c-.55-.8.42-2.36.87-3.27,2.78-5.58,23.3-26.62,28.99-31.89,142.06-131.64,351.65-115.9,482.49,21.59,57.03,59.92,92.67,138.56,111.18,218.64l81.97-118.01c-30.91-4.83-62.21-4.84-93.17-.53l-34.78-65.3c16.21-2.78,32.82-6.99,49.23-8.55,145.12-13.74,302.47,71.96,372.35,198.75,61.35,111.29,64.69,258.58,1.89,370.23-4.51,8.01-12.16,15.69-16.1,23.93-.72,1.5-1.6,2.55-1.16,4.42l131.66-33.55c1.13-1.5-16.83-22.21-19.23-24.84-11.83-13.01-25.55-24.22-37.7-36.91,2.78-14.96,7.45-29.86,10.38-45.04,1.6-8.32,2.75-16.82,3.27-25.3,1.29-4.46,7.37.76,9.64,2.4,53.73,38.71,98.23,89.4,125.8,149.97,63.85,140.27,43.48,313.68-81.64,411.99-60.48,47.53-136.76,66.76-213,53.45l68.33,129.18c2.89.63,1.99-.39,2.76-1.59,2.26-3.5,5.14-10.07,6.98-14.1,12.05-26.37,19.49-56.38,24.37-84.94,1.23-2.15,26.51-6.81,31.45-8.3,12.72-3.83,24.71-10.38,37.5-14.04-1.09,32.62-6.4,65.13-16.11,96.3-43.01,137.81-172.12,245.44-322.23,229.01-25.03-2.75-49.49-10.19-73.78-16.27-6.02-25.9-9.98-52.62-10.22-79.22,13.81,5.06,27.25,10.89,41.7,14.81,12.1,3.27,31.68,8.38,43.69,9.8,1.54.19,4.24-.36,5.27-1.6-13.8-25.89-28.05-51.63-41.63-77.63-15.29-29.29-31.55-68.46-48.81-95.29-.98-1.52-1.86-2.98-3.34-4.09-2.24.05-7.38,17.01-8.41,20.14-39.64,121.46-6.82,263.04,56.01,370.73,9.99,17.12,23.58,33.29,33.03,50.2,25.27,45.14-21.06,84.84-55.69,42.02-66.3-81.96-113.39-217.39-118.73-322.26-6.93-136.32,47.25-316.79,205.59-333.51,60.25-6.36,116.87,20.56,176.33,23.65,103.03,5.37,185.48-62.32,215.59-157.81l-142.85,38.51,22.7,32.62c5.65,10.62,11.76,21.15,14.47,33.06-11.69,6.61-24.12,12.75-36.87,17.23-5.44,1.91-24.45,8.76-28.27,5.29-1.38-1.25-8.46-17.6-10.78-21.52-20.58-34.65-52.6-64.45-75.3-98.61-55.83-83.95-42.22-165.91,4.52-249.67,17.2-30.82,41.79-62.86,52.71-96.36,27.11-83.15,19.47-177.89-25.79-253.09l-78.86,118.64c-1.71,1.13-3.45.51-5.27.3-13.86-1.6-30.31-9.25-44.45-11.53l98.92-148.42c.84-3.08-8.55-12.89-11.13-15.74-7.66-8.4-21.09-20.98-30.04-27.73-2.19-1.65-9.3-7.8-11.66-6.16l-117.39,180.13c-1.84,1.7-3.81,1.12-5.96.87-12.5-1.45-28.6-10.06-41.96-10.92l127.92-195.64c-.09-3.52-55.49-28.71-63.78-29.29l-114.12,169.38c-1.24,2.01-1.01,4.07-.87,6.3.35,5.7,8.89,41.49,7.35,43.04l-70.82-7.44c-1.57-15.09-4.63-30.15-7.84-44.96-22.05-102.04-54.48-195.72-139.41-261.82-9.3-7.24-19.68-15.12-30.38-19.93v120.52h.01ZM1023.53,401.7v-221.74c0-2.88-17.56-.77-20.35-.47-6.81.75-28.32,3.81-33.7,6.05-1.18.5-2.55.4-2.94,2.02l-.24,192.46c-.29,2.3.76,2.82,2.07,4.14,2.1,2.1,20.21,11.08,23.73,12.3,3.94,1.37,29.75,6.88,31.42,5.23h.01ZM1069.49,182.45v214.9c0,.24-3.09,2.53.58,1.83,8.35-1.61,22.7-8.77,30.74-12.75,8.82-4.35,17.47-9.24,25.55-14.81l.34-176.56c-18.41-8.02-38.52-12.6-58.43-14.47-.63.45,1.19,1.5,1.24,1.85h-.02,0ZM532.98,327.28l111.05,220.97c9.16-11.74,17.13-25.3,23.19-38.89,3.73-8.35,11.37-24.4,8.76-32.79l-82.87-160.61c-2.56-2.27-6.52-1.2-9.61-.88-5.52.58-48.98,10.11-50.53,12.2h.01ZM486.57,347.22c-12.41,6.84-25.32,13.55-37.1,21.4-3.25,2.17-12.63,7.27-11.76,10.73l109.43,216.16c3.84,3.4,26.09-1.32,31.95-2.87,4.11-1.09,26.17-8.88,26.97-11.63l-.42-2.93-116.23-230.48-2.82-.37h0ZM289.21,862.39c2.72-1.73,3.01-28.22,2.71-32.79s-2.86-24.67-5.83-26.47l-150.73-23.8c-4.71,16.4-12.55,32.09-16.52,48.72-.43,1.83-2.55,8.21-.96,9.09l171.31,25.25h.01ZM1936.53,909.73c1.78-1.85-5.2-21.48-6.5-25.13-2.47-6.94-9.6-26.11-13.48-31.23-.83-1.11-1.32-2.09-2.96-2.04-49.13,12.36-98.18,25.07-147.18,37.96-10.76,2.83-29.13,5.28-38.84,9.6-2.22.98-3.9,2.86-4.93,5.01-2.76,5.71-7.78,29.44-8.41,36.43-.56,6.24.76,15.86.98,22.22.05,1.29-1.39,3.94-.99,4.34l222.33-57.15h-.02ZM267.02,908.54l-156.52-23.63c-5.18,38.7.51,78.52,12.43,115.54,20.73-10.38,41.75-20.56,62.12-31.65,29.04-15.81,63.48-32.1,81.96-60.26h0ZM1726.65,1012.9c-3.19,4.52,29.66,49.71,36.04,55.27l182.56-48.5c3.96-2.4,2.29-16.31,2.52-21.08.11-2.42,1.25-4.78,1.28-7.4.06-10.72-2.04-21.49-2.71-32.17-.98-3.11-5.13-2.04-7.57-1.74l-212.1,55.63h-.02ZM232.97,1053.36c13.57-20.01,36.58-49.69,44.27-71.89.68-1.98,1.28-3.73.96-5.86-12.29,10-27.13,15.64-40.84,23.12-5.23,2.84-10.79,6.99-16.25,9.84-25.23,13.14-51.55,24.14-76.5,37.85-1.32,1.93.07,3.66.83,5.47,5.6,13.33,32.84,45.97,44.52,54.86,5.58,4.25,7.58-1.94,11.01-6.5,11.22-14.88,21.54-31.43,32.01-46.86v-.02h-.01ZM1680.72,1513.42c1.83.5,2.91-.17,4.35-1.13,6.87-4.53,22.3-19.68,28.52-26.14,3.23-3.35,13.23-14.05,13.01-17.94l-98.09-182.73c-3.93-4.14-34.55-9.44-41.83-10.35-10.09-1.25-20.07-1.83-30.25-1.42l124.27,239.69h.01ZM1505.2,1286.39c-2.24.57-14.46,10.51-17.09,12.79-5.2,4.51-12.94,12.17-17.4,17.38-2.67,3.11-7.98,8.32-7.22,12.14,38.84,71.14,73.43,144.72,112.16,215.9,4.21,7.73,4.2,10.6,13.71,9.86,6.66-.51,50.43-12.36,51.47-16.88-44.53-83.37-87.63-168.2-132.41-251.31-1.11-.4-2.12-.16-3.22.12h0Z"/>
    <path class="st0" d="M756.45,976.85l10.61,8.65c13.89,17.2,13.61,42.56-6,54.97-4.27,2.7-4.82.19-7.09,4.71-.88,1.76-32.22,3.88-38.78,5.32-167.8,36.77-195.8,261.7-61.71,356.66,1.09.77,5.23,4.22,6.09,3.23l13.66-167.69-78.25,12.42c-1.2-24.07,2.46-47.86,7.3-71.34,30.5-4.52,61.01-10.43,91.63-14.21,45.19-5.55,81.05-7.49,125.92,2.92,73.07,16.96,133.82,68.87,173.66,130.68,3.25,5.04,20.87,35.75,19.96,39.28-17.23,12-33.94,24.98-52.96,34.12-1.57.29-3.64.86-5.04.02-1.78-1.04-17.55-30.24-21.08-35.43-2.61-3.83-7.47-11.78-10.24-14.61-1.18-1.22-1.64-2.35-3.7-1.88l-7.45,105.58c77.17-26.31,131.92-88.92,213.65-104.94,16.36-3.2,28.84-4.09,45.3-1.2,23.7,4.14,44.46,9.61,67.64,23.65,32.76,19.83,56.12,51.14,78.96,80.09.07,15.23-3.25,31.12-4.31,46.53-1.25,18.34-1.34,36.81-1.27,55.25-2.15.56-2.48-.89-3.73-1.85-2.21-1.7-16.36-17.45-17.37-16.78l-66.79,97.53c68.47,55.85,121.4,128.01,163.08,205.55,9.34,17.37,24.52,44.4,31.02,62.15,6.86,18.73,1.35,38.6-17.16,47.42-25.44,12.11-40.1-8.27-50.74-27.96-34.51-63.82-60.62-119.38-109.13-175.34-62.14-71.68-153.6-113.85-209.87-187.64-5.34-7.01-19.91-27.22-22.68-34.47-.56-1.47-1.38-2.88-.87-4.53l58.27-34.88,21.18,31.64,19.2,20.52,75.14-112.99c-63.71-21.03-115.91,29.29-166.05,59.34-96.01,57.54-210.94,84.56-320.86,49.3-150.66-48.31-228.53-201.24-181.7-353.11,33.19-107.65,129.59-178.54,242.57-176.68h-.01ZM761.42,1448.89l15.97-210.38c-.72-2.19-12.21-3.14-15.3-3.33-14.35-.89-28.61,1.47-42.91,1.3l-13.71,197.91c.89,3.69,48.88,15.58,55.95,14.51h0ZM865.72,1443.87c3.64-54.46,9.22-108.83,13.71-163.24-.78-4.37-19.33-15.66-24.01-18.29-3.68-2.05-30.47-14.76-31.88-13.45l-16.16,202.49c19.69-.67,39.14-3.39,58.33-7.5h0ZM1189.87,1578.01l71.99-106.45c.4-1.03-.02-1.8-.43-2.72-1.65-3.8-15.59-19.94-19.3-24.26-2.76-3.2-15.63-18.45-18.21-19.14-2.75-.75-9.02,8.53-10.87,11.13-24.7,34.62-45.42,72.37-71.45,106.12l48.28,35.33h0Z"/>
    <path class="st2" d="M756.45,976.85c119.41,1.96,215.42,68.14,331,70.86,12.37.29,24.38-2.32,36.7-2.55l-111.19-158.99c-2.89-.57-1.49,1.3-1.98,2.94-11.42,38.61-12,77.49-11.06,117.54l-69.35-23.8,1.06-42.65c19.22-244.03,213.33-384.74,451.52-365.83,87.3,6.93,170.18,37.96,256.27,51.8,28.83,4.63,58.06,6.75,87.22,7.81.22,23.42-5.19,46.48-8.76,69.51-24.14-.26-48.47-2.21-72.46-5.06-110.66-13.13-214.21-63.45-327.5-53.9l49.74,67.71,2.47-.62c.39-13.13-2.27-26.12-3.73-39.12,23.11-1.4,45.59,4.4,68.27,7.49.56,9.01,2.21,18.94,2.58,27.85,2.62,62.19-2.17,122.16-19.04,182.31-3.01,10.71-7.7,20.98-9.59,32.02l-61.92-36.22c-.63-1.08,6.57-18,7.6-21.2,7.75-24.02,13.01-50.56,13.03-75.8-35.27-46.16-71.13-91.87-107.8-136.92-3.38-1.54-10.92.42-14.92,1.18-11.89,2.24-31.88,7.34-42.96,11.74-1.24.5-2.2-.7-1.65,1.89l109.03,146.98c.4,1.04.25,2.04.05,3.11-.41,2.14-25.75,32.68-27.86,33.18l-124.06-160.31c-.71-.67-1.53-1.09-2.52-1.12-3.12-.06-44.77,30.11-45.28,33.07,9.24,12.68,19.11,25.55,28.25,38.57,5.59,7.95,38.66,54.27,38.65,59.39,0,1.29-1.55,4.82-2.36,5.91-1.53,2.06-23.45,16.63-26.17,17.65-7.53,2.82-10.97-5.93-16.06-9.94l-55.96-76.36c-20.19,18.7-33.78,44.14-45.68,68.76l147.75,210.63,54.47-21.7-80.56-120.72c-.45-3.24,4.27-6.82,6.7-8.97,2.75-2.46,22.89-16.65,25.13-17.22,5.74-1.47,13.68,11.76,16.94,16.06,25.63,33.79,46.88,72.36,73.6,105.36,1.55.26,18.52-17.06,20.96-19.76,5.5-6.11,32.25-43.79,34.96-44.63,4.65-1.44,47.61,32.93,55.18,36.66-37.75,70-104.05,118.57-179.95,140.52-69.34,20.05-129.94,20.17-200.52,6.2-84.53-16.75-163.07-59.99-250.68-62.98,2.27-4.53,2.82-2.01,7.09-4.71,19.61-12.4,19.89-37.76,6-54.97l-10.61-8.65-.04-.02h0Z"/>
    <path class="st2" d="M1002.25,1137.26c-2.83,35.92-6.11,73.4-20.32,106.64l-57.28-53.3c-1.16-4.4,3.95-16.7,5.12-22.43,3.32-16.34,6.19-32.97,5.59-49.7l66.91,18.79h-.01Z"/>
    <path class="st2" d="M1500.97,1029.83c11.89,12.27,24.99,23.6,35.43,37.3-7.54,8.3-13.76,18.73-23.01,25.01l-4.4-2.35c-17.61-19.58-42.32-37.97-58.11-58.94-15.18-20.16,7.11-41.8,26.09-27.33,8.14,6.21,16.56,18.61,24.01,26.3h-.01Z"/>
    <path class="st2" d="M1523.42,835.96c2.62,2.62,13.86,13.9,14.22,16.29l-.37,1.6c-19.04,17.24-35.33,39.27-54.71,55.96-9.28,7.99-16.63,14.16-28.02,4.35-12.97-11.17-4.24-24.21,4.36-34.21,15.49-18,35.83-33.65,52.4-50.77,5.68-3.68,8.83,3.5,12.12,6.78h0Z"/>
    <path class="st2" d="M1486.55,941.11c16.27-2.72,35.5.37,51.83.99,7.18.27,22.71-1.47,28.37.2,2.01.6,2.96,2.16,3.32,4.14.61,3.23.58,25.59-.21,28.29-.7,2.37-2.93,3.44-5.28,3.42-24.01-1.81-51.01,2.21-74.63,0-23.29-2.19-24.66-33.47-3.38-37.02h-.01Z"/>
    <path class="st2" d="M1388.74,1123.43v-88.82c0-5.53,9.34-11.06,14.4-11.69,13.63-1.71,19.34,5.06,20.43,17.85,1.66,19.52-.19,43.73-1.34,63.34-.22,3.83,1.17,18.42-1.12,20-1.73,1.2-32.37.92-32.37-.7h0Z"/>
  </g>
</svg>