<svg id="Layer_1" data-name="Layer 1" xmlns="http://www.w3.org/2000/svg" viewBox="0 0 2396 597.65"><defs><style>.cls-1{fill:#8b0021;}.cls-2{fill:#101820;}.cls-3{fill:#9765a3;}.cls-4{fill:#91ab5a;}.cls-5{fill:#357d96;}.cls-6{fill:#faa61a;}</style></defs><g id="Text"><path class="cls-1" d="M920.17,111.31v81.57h-6.51V111.31H883.14v-6h67.55v6Z" transform="translate(-2 -101.18)"/><path class="cls-1" d="M1013.65,192.88V155c0-13.14-7.37-21.78-20.27-21.78-12.51,0-22.15,9.51-22.15,22.77v36.9H965.1V101.55h6.13V141c4.26-7.51,11.39-13.39,23-13.39,16.15,0,25.53,11,25.53,26.27v39h-6.13Z" transform="translate(-2 -101.18)"/><path class="cls-1" d="M1066.61,188.64c9.88,0,16.64-4.38,21.89-10l4.26,3.76c-6.51,7-14.14,12-26.4,12-16.76,0-31.27-13.39-31.27-33.28v-.24c0-18.52,13-33.27,30.27-33.27,17.89,0,29.28,14.51,29.28,33.4v.24a14,14,0,0,1-.13,2.26H1041.6C1042.71,179.37,1054.1,188.64,1066.61,188.64ZM1088,158c-.88-12.88-8.27-24.76-22.9-24.76-12.63,0-22.39,10.63-23.51,24.76Z" transform="translate(-2 -101.18)"/><path class="cls-1" d="M1186,194.26c-21,0-35.9-13.27-35.9-37.78V105.31h6.5v50.54c0,20.65,11.14,32.53,29.66,32.53,17.76,0,29.15-10.75,29.15-31.9V105.31h6.51v50.41C1221.87,180.87,1207.23,194.26,1186,194.26Z" transform="translate(-2 -101.18)"/><path class="cls-1" d="M1291.37,192.88V155c0-13.14-7.38-21.78-20.28-21.78-12.51,0-22.14,9.51-22.14,22.77v36.9h-6.14v-63.8H1249V141c4.26-7.51,11.38-13.39,23-13.39,16.14,0,25.52,11,25.52,26.27v39h-6.12Z" transform="translate(-2 -101.18)"/><path class="cls-1" d="M1316.21,112.44v-8.38h7.64v8.38Zm.76,80.44v-63.8h6.13v63.8Z" transform="translate(-2 -101.18)"/><path class="cls-1" d="M1370.08,193.38h-5.24l-28.66-64.3h7.14L1367.47,186l24.39-56.92h6.88Z" transform="translate(-2 -101.18)"/><path class="cls-1" d="M1435.88,188.64c9.88,0,16.65-4.38,21.89-10l4.26,3.76c-6.5,7-14.14,12-26.39,12-16.76,0-31.27-13.39-31.27-33.28v-.24c0-18.52,13-33.27,30.27-33.27,17.89,0,29.28,14.51,29.28,33.4v.24a14,14,0,0,1-.13,2.26h-52.92C1412,179.37,1423.37,188.64,1435.88,188.64ZM1457.29,158c-.88-12.88-8.27-24.76-22.9-24.76-12.63,0-22.39,10.63-23.52,24.76Z" transform="translate(-2 -101.18)"/><path class="cls-1" d="M1513.34,134.83c-14.75,0-27.65,11.14-27.65,31.9v26.15h-6.13v-63.8h6.13v18.15c5-11.38,15.64-19.65,28.27-19.15v6.77h-.62Z" transform="translate(-2 -101.18)"/><path class="cls-1" d="M1546.93,194.14a43.74,43.74,0,0,1-26.15-9.26l3.63-4.88c7,5.38,14.76,8.38,22.89,8.38,8.64,0,15.39-4.75,15.39-12.14V176c0-7.51-8-10.26-16.89-12.76-10.38-3-21.89-6.13-21.89-17.51v-.25c0-10.25,8.64-17.64,21-17.64a43.07,43.07,0,0,1,22.65,7l-3.25,5.13c-5.88-3.88-12.88-6.38-19.64-6.38-8.77,0-14.52,4.75-14.52,11.14V145c0,7.14,8.64,9.75,17.76,12.38,10.26,2.88,21,6.64,21,17.89v.25C1569,186.88,1559.19,194.14,1546.93,194.14Z" transform="translate(-2 -101.18)"/><path class="cls-1" d="M1584,112.44v-8.38h7.64v8.38Zm.76,80.44v-63.8h6.13v63.8Z" transform="translate(-2 -101.18)"/><path class="cls-1" d="M1631.43,194c-9.88,0-17.88-5.37-17.88-17.51V134.72h-9.26v-5.64h9.26V108.7h6.13v20.38h22.39v5.64h-22.39v41.16c0,9.14,5.38,12.38,12.75,12.38a21.3,21.3,0,0,0,9.38-2.26v5.77A23.5,23.5,0,0,1,1631.43,194Z" transform="translate(-2 -101.18)"/><path class="cls-1" d="M1688.18,195.14c-5.63,13.38-12.14,18.14-21.26,18.14a28.83,28.83,0,0,1-12.64-2.74l2.13-5.38a22.17,22.17,0,0,0,10.88,2.37c6.63,0,11-3.87,15.76-15l-30.66-63.42h7.14l26.52,57,23-57h6.76Z" transform="translate(-2 -101.18)"/><path class="cls-1" d="M1798.53,194.38c-18.89,0-32.66-15.25-32.66-33.15V161c0-17.88,13.89-33.4,32.9-33.4s32.66,15.27,32.66,33.16V161C1831.43,178.87,1817.54,194.38,1798.53,194.38Zm26.26-33.4c0-15.38-11.51-27.65-26.26-27.65-15.14,0-26,12.39-26,27.4V161c0,15.39,11.51,27.65,26.26,27.65,15.14,0,26-12.38,26-27.39Z" transform="translate(-2 -101.18)"/><path class="cls-1" d="M1868.32,106.81c-8.75,0-12.88,5.26-12.88,16.14v6.13h22.26v5.64h-22.26v58.17h-6.14V134.72H1840v-5.64h9.26v-6.26c0-13.75,7-21.64,19-21.64a27.16,27.16,0,0,1,9.51,1.5v5.76A29.62,29.62,0,0,0,1868.32,106.81Z" transform="translate(-2 -101.18)"/><path class="cls-1" d="M1969.4,194.38c-25,0-43.53-19.88-43.53-45v-.26c0-24.77,18.51-45.28,43.78-45.28,15.64,0,25,5.75,34,14l-4.63,4.75c-7.64-7.38-16.39-12.89-29.53-12.89-21,0-36.9,17.15-36.9,39.17v.24c0,22.15,16.14,39.41,37,39.41,12.64,0,21.26-4.88,30.15-13.64l4.38,4.24C1994.93,188.25,1984.92,194.38,1969.4,194.38Z" transform="translate(-2 -101.18)"/><path class="cls-1" d="M2066.3,192.88V155c0-13.14-7.38-21.78-20.27-21.78-12.51,0-22.15,9.51-22.15,22.77v36.9h-6.13V101.55h6.13V141c4.26-7.51,11.38-13.39,23-13.39,16.14,0,25.52,11,25.52,26.27v39h-6.12Z" transform="translate(-2 -101.18)"/><path class="cls-1" d="M2091.15,112.44v-8.38h7.63v8.38Zm.74,80.44v-63.8H2098v63.8Z" transform="translate(-2 -101.18)"/><path class="cls-1" d="M2146.55,194.38c-18.38,0-32.52-15.25-32.52-33.15V161c0-17.88,14.25-33.4,32.52-33.4,12,0,19.52,5.51,25.53,11.76l-4.38,4.5c-5.5-5.63-11.75-10.51-21.26-10.51-14.51,0-25.77,12.14-25.77,27.4V161c0,15.39,11.64,27.65,26.27,27.65,9,0,16-4.63,21.39-10.63l4.26,3.76C2166.07,189.14,2158.31,194.38,2146.55,194.38Z" transform="translate(-2 -101.18)"/><path class="cls-1" d="M2232,192.88V182.25c-4.37,6.13-12.26,12.13-24.39,12.13-11.88,0-24.65-6.76-24.65-20v-.25c0-13.26,11.38-20.76,27.9-20.76a77,77,0,0,1,21.14,2.75v-2.75c0-12.88-7.87-19.52-21-19.52a42.7,42.7,0,0,0-20,5.14l-2.25-5.38c7-3.25,13.89-5.5,22.65-5.5,16.39,0,26.65,8.5,26.65,25v39.77h-6Zm.13-31.15a84.77,84.77,0,0,0-21.64-2.88c-13.52,0-21,6-21,14.89V174c0,9.27,8.76,14.64,18.51,14.64,13,0,24.15-8,24.15-19.64v-7.25Z" transform="translate(-2 -101.18)"/><path class="cls-1" d="M2285,213.16a48.17,48.17,0,0,1-29.28-9.76l3.63-5a41.69,41.69,0,0,0,25.77,9c14.64,0,25-8.38,25-24.77v-9.25c-5.51,7.88-14,14.76-26.65,14.76-15.39,0-30.66-11.76-30.66-30v-.26c0-18.38,15.26-30.26,30.66-30.26,12.75,0,21.39,6.76,26.65,14.25V129.1h6.13V183C2316.28,202.39,2303.15,213.16,2285,213.16Zm25.52-55.43c0-14.76-13.14-24.27-26.39-24.27s-24.65,9.25-24.65,24.15v.24c0,14.39,11.51,24.4,24.65,24.4s26.39-9.76,26.39-24.27Z" transform="translate(-2 -101.18)"/><path class="cls-1" d="M2365.1,194.38c-18.89,0-32.66-15.25-32.66-33.15V161c0-17.88,13.89-33.4,32.9-33.4S2398,142.85,2398,160.74V161C2398,178.87,2384.12,194.38,2365.1,194.38Zm26.27-33.4c0-15.38-11.51-27.65-26.27-27.65-15.14,0-26,12.39-26,27.4V161c0,15.39,11.51,27.65,26.26,27.65,15.15,0,26-12.38,26-27.39Z" transform="translate(-2 -101.18)"/><path class="cls-2" d="M892.83,238.19h36.94l49.65,131.32V238.19h34.63V444.26H979.13L927.47,311.2V444.26H892.83Z" transform="translate(-2 -101.18)"/><path class="cls-2" d="M1039.71,238.19H1139v30.59h-62v56.28h52.24v30.6h-52.24v58h63.5v30.6H1039.71V238.19Z" transform="translate(-2 -101.18)"/><path class="cls-2" d="M1196.39,238.19V379.9c0,28.86,4.62,37.23,20.2,37.23,17.32,0,21.65-7.51,21.65-37.23V238.19h37.23V379.9c0,26-2.31,36.94-9.81,47.33-10.1,14.14-24.24,19.91-48.21,19.91-25.68,0-41-7.21-50.79-23.08-5.78-9.82-7.51-20.5-7.51-44.16V238.19Z" transform="translate(-2 -101.18)"/><path class="cls-2" d="M1338,444.26h-37.23V238.19H1353c24.53,0,36.93,3.75,46.47,13.85,9.52,9.81,13.57,23.67,13.57,45.89,0,35.49-6.64,49.35-27.42,58.58l33.77,87.74h-41l-28.86-84.85H1338v84.86Zm12.41-113.42c10.68,0,15.58-1.74,19.34-6.93,4-4.91,6.06-13.57,6.06-23.67,0-23.95-6.35-32.33-24.53-32.33h-14.43v62.92h13.56Z" transform="translate(-2 -101.18)"/><path class="cls-2" d="M1432.8,303.13c0-49.07,16.73-68.12,59.46-68.12,43,0,59.75,19.05,59.75,68.12v76.19c0,49.06-16.74,68.12-59.75,68.12-42.71,0-59.46-19.06-59.46-68.12Zm82,3.17c0-31.74-5.19-41.26-22.22-41.26-17.32,0-22.51,9.52-22.51,41.26v69.85c0,31.75,5.19,41.27,22.51,41.27,17,0,22.22-9.52,22.22-41.27Z" transform="translate(-2 -101.18)"/><path class="cls-2" d="M1603.37,382.21c.3,25.39,6.64,35.21,21.94,35.21,15.58,0,22.23-8.95,22.23-30.59,0-9.52-1.73-16.17-5.77-20.5-4.33-4.62-5.48-5.19-25.12-11.54-31.45-10.4-43.87-27.13-43.87-59.17,0-39.25,17.9-60,52-60,22.8,0,38.38,8.95,47,26.56,4.33,8.66,6.35,18.47,6.63,35.22h-34.05c-1.44-23.95-5.77-31.75-18.47-31.75-11.83,0-17.61,9.52-17.61,28.57,0,16.16,6.64,23.67,26.84,30.89,20.79,7.21,25.39,9.24,32.61,15.58,10.68,9.24,15.29,23.09,15.29,45,0,41-19.34,61.76-57.14,61.76-24.24,0-41.27-9.24-49.93-27.42-4.62-8.95-6.35-19-6.63-37.81h34.06Z" transform="translate(-2 -101.18)"/><path class="cls-2" d="M1815.79,382.21c-.29,19.91-2.89,31.16-9,41.26-9.81,16.17-25.69,23.95-48.21,23.95-21.64,0-37.81-7.21-47-21.06-7.21-10.68-10.1-26-10.1-50.8V307.74c0-28,3.47-43.59,12.41-54.55,9.52-11.84,24.24-17.61,44.15-17.61,23.38,0,39.83,8.95,48.78,26.56,4.62,8.66,6.35,18.18,6.63,35.21h-33.77c-1.74-24.53-6.36-31.74-20.79-31.74-15.58,0-20.2,10.39-20.2,44.73V373c0,34,4.91,44.44,20.78,44.44,15.59,0,21.65-9.81,22.23-35.21Z" transform="translate(-2 -101.18)"/><path class="cls-2" d="M1835.44,238.19h37.23V444.26h-37.23Z" transform="translate(-2 -101.18)"/><path class="cls-2" d="M1897.93,238.19h99.28v30.59h-62v56.28h52.24v30.6h-52.24v58h63.49v30.6H1897.93V238.19Z" transform="translate(-2 -101.18)"/><path class="cls-2" d="M2018.42,238.19h36.94L2105,369.51V238.19h34.63V444.26h-34.92L2053.06,311.2V444.26h-34.64Z" transform="translate(-2 -101.18)"/><path class="cls-2" d="M2277.25,382.21c-.29,19.91-2.89,31.16-8.95,41.26-9.81,16.17-25.69,23.95-48.21,23.95-21.64,0-37.81-7.21-47-21.06-7.21-10.68-10.1-26-10.1-50.8V307.74c0-28,3.47-43.59,12.41-54.55,9.52-11.84,24.24-17.61,44.15-17.61,23.38,0,39.83,8.95,48.78,26.56,4.62,8.66,6.35,18.18,6.63,35.21h-33.77c-1.74-24.53-6.36-31.74-20.79-31.74-15.58,0-20.2,10.39-20.2,44.73V373c0,34,4.91,44.44,20.78,44.44,15.59,0,21.65-9.81,22.23-35.21Z" transform="translate(-2 -101.18)"/><path class="cls-2" d="M2297,238.19h99.28v30.59h-62.05v56.28h52.24v30.6h-52.24v58h63.5v30.6H2297Z" transform="translate(-2 -101.18)"/><path class="cls-1" d="M892.83,489.56h37.23V695.63H892.83Z" transform="translate(-2 -101.18)"/><path class="cls-1" d="M955.17,489.56h36.94l49.65,131.32V489.56h34.63V695.63h-34.92l-51.66-133v133H955.17Z" transform="translate(-2 -101.18)"/><path class="cls-1" d="M1129.46,633.58c.29,25.39,6.64,35.22,21.94,35.22,15.58,0,22.23-8.95,22.23-30.6,0-9.52-1.74-16.16-5.78-20.49-4.32-4.62-5.48-5.19-25.11-11.55-31.46-10.39-43.87-27.12-43.87-59.16,0-39.26,17.9-60,52-60,22.8,0,38.38,8.95,47,26.56,4.33,8.65,6.35,18.47,6.63,35.21h-34c-1.44-24-5.77-31.75-18.47-31.75-11.84,0-17.61,9.52-17.61,28.58,0,16.16,6.63,23.67,26.84,30.88,20.78,7.22,25.39,9.24,32.61,15.58,10.68,9.24,15.29,23.09,15.29,45,0,41-19.34,61.76-57.14,61.76-24.24,0-41.27-9.24-49.93-27.42-4.62-8.95-6.35-19-6.63-37.81h34.06Z" transform="translate(-2 -101.18)"/><path class="cls-1" d="M1254.66,520.16h-36.37v-30.6h110v30.6h-36.37V695.63h-37.23Z" transform="translate(-2 -101.18)"/><path class="cls-1" d="M1345,489.56h37.23V695.63H1345Z" transform="translate(-2 -101.18)"/><path class="cls-1" d="M1435.48,520.16h-36.37v-30.6h110v30.6h-36.36V695.63h-37.23Z" transform="translate(-2 -101.18)"/><path class="cls-1" d="M1562.82,489.56V631.28c0,28.86,4.62,37.23,20.2,37.23,17.32,0,21.65-7.51,21.65-37.23V489.56h37.23V631.28c0,26-2.31,36.94-9.82,47.33-10.1,14.14-24.24,19.91-48.2,19.91-25.68,0-41-7.22-50.8-23.09-5.77-9.81-7.5-20.49-7.5-44.15V489.56Z" transform="translate(-2 -101.18)"/><path class="cls-1" d="M1695.21,520.16h-36.37v-30.6h110v30.6h-36.37V695.63h-37.23Z" transform="translate(-2 -101.18)"/><path class="cls-1" d="M1785.71,489.56H1885v30.6h-62.06v56.28h52.25V607h-52.25v58h63.5v30.6H1785.71V489.56Z" transform="translate(-2 -101.18)"/></g><g id="Brain"><path class="cls-3" d="M192.82,616.24,181,600.72l-23.46,24.45a7.53,7.53,0,0,1,.74,1.63l31.05-2.69A12.24,12.24,0,0,1,192.82,616.24Z" transform="translate(-2 -101.18)"/><path class="cls-3" d="M192.05,632.5a12.22,12.22,0,0,1-.89-1.28L153.79,647.5l1,25.38Z" transform="translate(-2 -101.18)"/><path class="cls-3" d="M153.35,636.6l.29,7.18L189.76,628l-.12-.44-31.07,2.69A7.9,7.9,0,0,1,153.35,636.6Z" transform="translate(-2 -101.18)"/><path class="cls-3" d="M150.81,621.32a7.81,7.81,0,0,1,4.34,1.31l23.17-24.15c-20.8-1.39-41.78-3.54-57.23-1.76l25.81,25.64A7.87,7.87,0,0,1,150.81,621.32Z" transform="translate(-2 -101.18)"/><path class="cls-3" d="M150.2,645.27l-.33-8.31a7.55,7.55,0,0,1-2.79-.89L129.7,654.19Z" transform="translate(-2 -101.18)"/><path class="cls-3" d="M318.69,651l-5-32.44L271.25,637a8.48,8.48,0,0,1,.24,2c0,.15,0,.31,0,.47Z" transform="translate(-2 -101.18)"/><path class="cls-3" d="M212.7,629.75a12.26,12.26,0,0,1-8,6.85l2,17.35a7.53,7.53,0,0,1,5.42,3.4l40.92-16.5a8.76,8.76,0,0,1-.19-1.79c0-.1,0-.2,0-.29Z" transform="translate(-2 -101.18)"/><path class="cls-3" d="M151.44,675.87,150.35,649,124,660.49A133,133,0,0,0,151.44,675.87Z" transform="translate(-2 -101.18)"/><path class="cls-3" d="M204.9,599.49c-6.74,0-13.79-.24-20.94-.66l11.64,15.29a12.15,12.15,0,0,1,9.87-.88l7.1-13.9C210.06,599.42,207.51,599.47,204.9,599.49Z" transform="translate(-2 -101.18)"/><path class="cls-3" d="M203.27,654.39,201.21,637a12.14,12.14,0,0,1-6.6-2.14l-35.83,38.86,39.57-11.58c0-.13,0-.26,0-.4A7.86,7.86,0,0,1,203.27,654.39Z" transform="translate(-2 -101.18)"/><path class="cls-3" d="M317,617.11l5.52,35.94a1.72,1.72,0,0,1-.55,1.55,1.74,1.74,0,0,1-1.59.41l-49.8-12.12a9.21,9.21,0,0,1-4.9,4.51l8.83,42.72c46.9-13,60.84-54.73,57.2-79.42Z" transform="translate(-2 -101.18)"/><path class="cls-3" d="M205.28,669.58a7.59,7.59,0,0,1-6-4.06L156.66,678c14.27,5.52,31.42,10.07,51.8,13.07Z" transform="translate(-2 -101.18)"/><path class="cls-3" d="M313.17,615l-3.44-22.39-40,41.2,0,.06Z" transform="translate(-2 -101.18)"/><path class="cls-3" d="M322.71,593.35a25.16,25.16,0,0,0-9.79-3l3.55,23.16,14.6-6.35C329.55,600.63,326.64,595.64,322.71,593.35Z" transform="translate(-2 -101.18)"/><path class="cls-3" d="M271.14,691l-8.87-42.88h-.08a9.43,9.43,0,0,1-5.05-1.45l-44.71,45c5.57.76,11.36,1.4,17.41,1.91,15.89,1.35,29.58.28,41.33-2.53A.09.09,0,0,1,271.14,691Z" transform="translate(-2 -101.18)"/><path class="cls-3" d="M121.13,658.08l23.32-24.31a8.07,8.07,0,0,1-1.11-2.19l-41.86,3.62c3.85,7.61,10.23,15.52,19.56,23Z" transform="translate(-2 -101.18)"/><path class="cls-3" d="M100.51,631.79,143,628.11a8,8,0,0,1,1.31-3.4l-26.67-26.48a1.69,1.69,0,0,1-.46-1C106.43,599.11,99,603.36,97.33,612c-1.15,5.85-.4,12.73,2.62,20A2.68,2.68,0,0,1,100.51,631.79Z" transform="translate(-2 -101.18)"/><path class="cls-3" d="M260.16,630.26,259.09,598l-46.32,22a12.22,12.22,0,0,1,1,4.8,11.88,11.88,0,0,1-.12,1.58l40.07,9A9.31,9.31,0,0,1,260.16,630.26Z" transform="translate(-2 -101.18)"/><path class="cls-3" d="M254.45,644.07l-41.08,16.56a8.33,8.33,0,0,1,.1,1.13,7.85,7.85,0,0,1-4.73,7.27l2.75,18.6,43.1-43.39A2.09,2.09,0,0,1,254.45,644.07Z" transform="translate(-2 -101.18)"/><path class="cls-3" d="M263.65,630.16a9.48,9.48,0,0,1,3.51,1.28l40.19-41.38c-11.23-.13-26.2,2.46-44.88,5a.86.86,0,0,1,0,.17Z" transform="translate(-2 -101.18)"/><path class="cls-3" d="M216.12,600.1l-7.54,14.74a12.44,12.44,0,0,1,2.35,2.18l44.23-21c-11.65,1.44-24.61,2.73-38.87,3.27A1.62,1.62,0,0,1,216.12,600.1Z" transform="translate(-2 -101.18)"/><path class="cls-4" d="M198.55,536.66a9.65,9.65,0,0,1,12.66,5.61l35.62-6.36c-21.66-13-49.4-28.54-77.69-46.11Z" transform="translate(-2 -101.18)"/><path class="cls-4" d="M211.74,546.86l37.88,11.88,8.7,2.62a6.66,6.66,0,0,1,1.17-1.42L248.17,539.2l-36.34,6.49A8.94,8.94,0,0,1,211.74,546.86Z" transform="translate(-2 -101.18)"/><path class="cls-4" d="M137.58,496.17l57.91,42.45.1-.11-30.78-49.05-25.62,1.29A13.48,13.48,0,0,1,137.58,496.17Z" transform="translate(-2 -101.18)"/><path class="cls-4" d="M259.42,570.11a7,7,0,0,1-2.17-5.05c0-.13,0-.25,0-.37l-8.67-2.62L213.29,551l41.48,27.61Z" transform="translate(-2 -101.18)"/><path class="cls-4" d="M131.8,550l114.51,27.14L209.09,552.4a9.68,9.68,0,0,1-16.42-4.64Z" transform="translate(-2 -101.18)"/><path class="cls-4" d="M288.48,570.47a2.57,2.57,0,0,1,.41.19,3.14,3.14,0,0,0,.19-1.28c-.49-6.63-15.05-17-37-30.32l10.5,19.23a6.94,6.94,0,0,1,8.64,6.77c0,.07,0,.13,0,.18Z" transform="translate(-2 -101.18)"/><path class="cls-4" d="M250.08,581.65,125.08,552a7.12,7.12,0,0,1-2.27,2.54l7.81,22.07a1.83,1.83,0,0,1,.07.83C173.34,583.68,218.83,584.52,250.08,581.65Z" transform="translate(-2 -101.18)"/><path class="cls-4" d="M125.59,546.78l66.95-2.51a9.56,9.56,0,0,1,.87-2.84L135.5,499a13.43,13.43,0,0,1-9.53,4.17l-4.55,39.11A7,7,0,0,1,125.59,546.78Z" transform="translate(-2 -101.18)"/><path class="cls-4" d="M46.22,454.7a9.32,9.32,0,0,1-1.35,1.46l25.06,44.09a11.1,11.1,0,0,1,4-.74A11.25,11.25,0,0,1,83.52,505l29.23-11.87a13.25,13.25,0,0,1,.17-7.43Z" transform="translate(-2 -101.18)"/><path class="cls-4" d="M118,541.86l4.56-39.11a13.5,13.5,0,0,1-8.43-6.41L84.86,508.2a10.75,10.75,0,0,1,.3,2.56,11.24,11.24,0,0,1-1.64,5.83l31.36,26.5A6.87,6.87,0,0,1,118,541.86Z" transform="translate(-2 -101.18)"/><path class="cls-4" d="M9.78,419.31l24.14,22.87a8.84,8.84,0,0,1,5.13-1.65h.06l8.32-40.18c-9.47-6.36-15.15-8-21-6.31-5.69,1.67-12.32,11-17.23,24.89A1.69,1.69,0,0,1,9.78,419.31Z" transform="translate(-2 -101.18)"/><path class="cls-4" d="M112.08,547.3a6.83,6.83,0,0,1,.53-1.56l-31.36-26.5a11.2,11.2,0,0,1-12.56,1.48L47.06,550Z" transform="translate(-2 -101.18)"/><path class="cls-4" d="M39.05,458.34a8.92,8.92,0,0,1-3.61-.77l-26.5,37.5,54.47,11.66A11.2,11.2,0,0,1,66.9,502L41.84,457.89A8.82,8.82,0,0,1,39.05,458.34Z" transform="translate(-2 -101.18)"/><path class="cls-4" d="M127,576.92l-7.51-21.2a4,4,0,0,1-.6,0,7,7,0,0,1-6.68-5l-65.79,2.71C67.18,564.59,96.22,572.18,127,576.92Z" transform="translate(-2 -101.18)"/><path class="cls-4" d="M32.59,455.55a8.86,8.86,0,0,1-1.07-10.84L8,422.41A140.33,140.33,0,0,0,5.45,494Z" transform="translate(-2 -101.18)"/><path class="cls-4" d="M65.9,518.65a11.25,11.25,0,0,1-3.25-7.89c0-.21,0-.41,0-.62l-56.21-12A126.63,126.63,0,0,0,20.24,531c4.55,7.6,12.07,14.25,21.74,20Z" transform="translate(-2 -101.18)"/><path class="cls-4" d="M139,487.28l24.15-1.22c-8.68-5.47-17.39-11.14-25.95-17-.42.89-2.17,4.67-4.28,9.21A13.51,13.51,0,0,1,139,487.28Z" transform="translate(-2 -101.18)"/><path class="cls-4" d="M135.75,468.1h0l.47,1.7Z" transform="translate(-2 -101.18)"/><path class="cls-4" d="M270.23,568.61a7,7,0,0,1-6,3.43,6.79,6.79,0,0,1-1.76-.23l-4.79,8.74.37.25c13.72-1.68,23.81-4.19,28.35-7.32Z" transform="translate(-2 -101.18)"/><path class="cls-4" d="M48,449.44a8.84,8.84,0,0,1-.25,2.08l66.72,31a12,12,0,0,1,1.29-1.71L50,405.21l-7.46,36A8.92,8.92,0,0,1,48,449.44Z" transform="translate(-2 -101.18)"/><path class="cls-4" d="M125.78,476.23a13.59,13.59,0,0,1,4,.6c2.89-6.27,4-8.67,4.63-9.65C123.53,459.7,112.9,452,102.87,444,80.8,426.38,66,414.08,55.3,406l63,72.47A13.29,13.29,0,0,1,125.78,476.23Z" transform="translate(-2 -101.18)"/><path class="cls-5" d="M334.43,509.51A8.69,8.69,0,0,1,336,504.7L323.4,491.76a12.1,12.1,0,0,1-7.16,2.34c-.41,0-.82,0-1.22-.06l-4.7,19,1.09.92Z" transform="translate(-2 -101.18)"/><path class="cls-5" d="M362,415.59c-13,2.5-27.4,7-44,11.89V469.8a12.23,12.23,0,0,1,3.93,1.26Z" transform="translate(-2 -101.18)"/><path class="cls-5" d="M311.64,493.18A12.23,12.23,0,0,1,304,482l-33.64-4.48a9.73,9.73,0,0,1-.7,1.58l37.65,31.41Z" transform="translate(-2 -101.18)"/><path class="cls-5" d="M306.41,514.27l-39-32.49a9.3,9.3,0,0,1-4.91,2.06l-3.29,40,47-9Z" transform="translate(-2 -101.18)"/><path class="cls-5" d="M259.69,527.34c11.09,6.19,23.79,13.07,38.31,20.8l7.32-29.52Z" transform="translate(-2 -101.18)"/><path class="cls-5" d="M447.42,478.71a11.33,11.33,0,0,1-3.05,1.1l.44,8,9.78.58Z" transform="translate(-2 -101.18)"/><path class="cls-5" d="M386.31,590.24l53.25-7.2a9,9,0,0,1,.9-3.32L393,542.48a12.12,12.12,0,0,1-6.68,3.25v44.51Z" transform="translate(-2 -101.18)"/><path class="cls-5" d="M446.06,575.18l-2.32-42.49-47,2.16a12.09,12.09,0,0,1-1.57,4.88L442.61,577A9,9,0,0,1,446.06,575.18Z" transform="translate(-2 -101.18)"/><path class="cls-5" d="M472.65,523.3a15.25,15.25,0,0,1,3.7-5.35l-19.07-25.86L445,491.36,446.34,516Z" transform="translate(-2 -101.18)"/><path class="cls-5" d="M254.07,469.07l-19.3-20.89,1.28-1.19c-18.87,4.47-31.06,8.36-38.12,12.79l55,11.26A9.86,9.86,0,0,1,254.07,469.07Z" transform="translate(-2 -101.18)"/><polygon class="cls-5" points="396.09 387.35 330.67 383.43 391.68 400.29 396.09 387.35"/><path class="cls-5" d="M396.55,531.37l47-2.16L443,518.73l-47.06-13-5.82,17.07A12.19,12.19,0,0,1,396.55,531.37Z" transform="translate(-2 -101.18)"/><path class="cls-5" d="M404.15,470.71l7.23-21.21-46.51-32-40.14,55.57a12.19,12.19,0,0,1,3.34,5.75Z" transform="translate(-2 -101.18)"/><polygon class="cls-5" points="335.23 380.2 397.25 383.93 400.92 373.18 335.23 380.2"/><path class="cls-5" d="M414.37,451.56,408,470.3l22.4-2.39a11.72,11.72,0,0,1,1.15-4.57Z" transform="translate(-2 -101.18)"/><path class="cls-5" d="M252.35,475.91a9.53,9.53,0,0,1-.11-1.32.41.41,0,0,1,0-.12l-56.67-11.6.35-1.69c-4.82,3.64-6.48,7.7-5.76,12.77.78,5.49,5.15,11.52,15.31,19.55l-.44-1.27Z" transform="translate(-2 -101.18)"/><path class="cls-5" d="M430.75,471.37l-24,2.58-3.88,11.37,38.43,2.3-.42-7.62A11.66,11.66,0,0,1,430.75,471.37Z" transform="translate(-2 -101.18)"/><path class="cls-5" d="M496,540.9a15.08,15.08,0,0,1-3.89,2.2L501.45,580l14.43-8.5a10,10,0,0,1-.62-3.43,9.75,9.75,0,0,1,1.82-5.7Z" transform="translate(-2 -101.18)"/><path class="cls-5" d="M555.87,498.66c0-.22-.07-.44-.09-.67l-64.59-3.88-1.6,20a15.18,15.18,0,0,1,10.3,7.52Z" transform="translate(-2 -101.18)"/><polygon class="cls-5" points="440.79 413.87 439.48 389.96 399.71 387.57 395.05 401.22 440.79 413.87"/><path class="cls-5" d="M253.49,479.22l-46,15.85c10.22,7.76,25.67,17.36,48.15,30l3.41-41.53A9.28,9.28,0,0,1,253.49,479.22Z" transform="translate(-2 -101.18)"/><path class="cls-5" d="M304.5,478.54a12.24,12.24,0,0,1,10-8.75v-38L269.63,470a9.07,9.07,0,0,1,1.2,4.07Z" transform="translate(-2 -101.18)"/><path class="cls-5" d="M367,414.73l45.59,31.33,6.92-20.28c-5.28-2.27-10-4.47-14-6.53C393.7,413.22,381.2,412.53,367,414.73Z" transform="translate(-2 -101.18)"/><path class="cls-5" d="M238,446.54l18.62,20.16a9.23,9.23,0,0,1,10.73.64l44.81-38.19c-12.28,3.53-25.7,7.12-40.56,10.16C258.64,442,247.53,444.33,238,446.54Z" transform="translate(-2 -101.18)"/><path class="cls-5" d="M415.54,448.12l18,12.36a12.09,12.09,0,0,1,1.71-1.5l-14-27.53Z" transform="translate(-2 -101.18)"/><path class="cls-5" d="M558.92,504.11a9.28,9.28,0,0,1-1.79-2.19l-55.91,23a14.91,14.91,0,0,1,.58,4.09,15.68,15.68,0,0,1-.22,2.49l36.2,10.45Z" transform="translate(-2 -101.18)"/><path class="cls-5" d="M566.54,506.35a8.65,8.65,0,0,1-1.54.14,8.94,8.94,0,0,1-3.11-.57l-20.69,37,42.74,12.35Z" transform="translate(-2 -101.18)"/><path class="cls-5" d="M534.48,571.28a9.84,9.84,0,0,1-3.57,4.79l7.34,15.37a209.71,209.71,0,0,0,25.62-15.55Z" transform="translate(-2 -101.18)"/><path class="cls-5" d="M500.6,534.83a14.56,14.56,0,0,1-2.17,3.62l21.12,21.45a9.83,9.83,0,0,1,8.81-1.18L536,545.05Z" transform="translate(-2 -101.18)"/><path class="cls-5" d="M471.58,527.93c0-.43.08-.85.14-1.25l-25.18-7,.51,9.34Z" transform="translate(-2 -101.18)"/><polygon class="cls-5" points="497.21 484.17 483 492.52 500.8 498.29 497.21 484.17"/><path class="cls-5" d="M498.31,581.82,488.68,544a14.79,14.79,0,0,1-9.23-1.68L454.6,577.64a8.65,8.65,0,0,1,2.39,6c0,.33,0,.65-.06,1l23.63,7.66Z" transform="translate(-2 -101.18)"/><path class="cls-5" d="M536.5,592.34l-1.38.65-7.35-15.4a9.84,9.84,0,0,1-10.12-3.09l-15.3,9,5,19.85A160,160,0,0,0,536.5,592.34Z" transform="translate(-2 -101.18)"/><path class="cls-5" d="M539.45,546.05l-8,14.36a9.91,9.91,0,0,1,3.61,7.43l31.15,4.89-.27,1.72c4.57-3.26,8.87-6.54,12.94-9.73,2.38-1.86,4.65-3.62,6.79-5.34Z" transform="translate(-2 -101.18)"/><path class="cls-5" d="M576.67,476.56l1.51.88-7,12.14a9.74,9.74,0,0,1,3.06,6.09L608,497.93l-.23,3.48L574,499.15a9.73,9.73,0,0,1-4.23,5.93l18.55,52.12c16.13-13.15,24.91-23.56,23.67-45.43S592.57,481.36,576.67,476.56Z" transform="translate(-2 -101.18)"/><path class="cls-5" d="M353.89,556.67a11,11,0,0,1-13.78-2.38l-14,8.69q11.16,5.82,23.45,12.21c10.58,5.5,20.72,10.19,30.46,14.19Z" transform="translate(-2 -101.18)"/><path class="cls-5" d="M481,596.06l-21,12.36a159,159,0,0,0,45.2-4.5Z" transform="translate(-2 -101.18)"/><path class="cls-5" d="M565.21,473.45c-19.35-5-42.52-11.7-65.57-19L558,490.43a9,9,0,0,1,10.23-2.73L575,476C571.48,475.05,568.16,474.21,565.21,473.45Z" transform="translate(-2 -101.18)"/><path class="cls-5" d="M455.86,587.91a8.81,8.81,0,0,1-3.15,3.21l5,14.57,18.8-11.06Z" transform="translate(-2 -101.18)"/><path class="cls-5" d="M490.82,454.77l-37.35,11.84a12.19,12.19,0,0,1,.15,1.82,11.6,11.6,0,0,1-3.41,8.22l8.89,12.05L488,490.44Z" transform="translate(-2 -101.18)"/><path class="cls-5" d="M556.27,493.47l-62-38.17-2.81,35.33,64.5,3.88C556.05,494.15,556.15,493.81,556.27,493.47Z" transform="translate(-2 -101.18)"/><path class="cls-5" d="M438.34,457.39a11.37,11.37,0,0,1,3.66-.6,11.63,11.63,0,0,1,10.42,6.51l37.48-11.88c-24.73-8-48.66-16.46-66.86-24.09Z" transform="translate(-2 -101.18)"/><path class="cls-5" d="M338.25,551.35a10,10,0,0,1-.54-1.65l-31.85,2.61q9.4,5,19.77,10.41l-1.58-2.54Z" transform="translate(-2 -101.18)"/><path class="cls-5" d="M486.1,513.89l1.6-20-25.88-1.55,17.34,23.51A14.78,14.78,0,0,1,486.1,513.89Z" transform="translate(-2 -101.18)"/><path class="cls-5" d="M451.75,575.63l24.86-35.37a15.16,15.16,0,0,1-4.87-8.85l-24.51,1.12L449.54,575A8.26,8.26,0,0,1,451.75,575.63Z" transform="translate(-2 -101.18)"/><path class="cls-5" d="M382.82,545.74a12.27,12.27,0,0,1-9-6.24l-14.55,5.4a11.83,11.83,0,0,1,.2,2.17,11,11,0,0,1-2.88,7.42l26.21,32.77V545.74Z" transform="translate(-2 -101.18)"/><path class="cls-5" d="M310.44,517.65l-1.35.25-7.76,31.27,36.09-3a10.9,10.9,0,0,1,1.52-4.8Z" transform="translate(-2 -101.18)"/><path class="cls-5" d="M358.05,541.63l14.56-5.4a12.73,12.73,0,0,1-.28-2.57,12.11,12.11,0,0,1,.9-4.56l-23.57-13.69a8.76,8.76,0,0,1-3.58,2.42L348.64,536A11.06,11.06,0,0,1,358.05,541.63Z" transform="translate(-2 -101.18)"/><path class="cls-5" d="M449.41,592.27a10.73,10.73,0,0,1-1.14.08,8.74,8.74,0,0,1-8.23-5.86L390,593.27c24.16,9,45.69,13.56,65,14.87Z" transform="translate(-2 -101.18)"/><path class="cls-5" d="M351.89,509.62a8.58,8.58,0,0,1-.47,2.78L375,526.08a12.18,12.18,0,0,1,9.56-4.64,11.92,11.92,0,0,1,2.25.22l5.75-16.87-65.13-18a12.11,12.11,0,0,1-1.52,2.55l12.56,12.95a8.72,8.72,0,0,1,13.43,7.34Z" transform="translate(-2 -101.18)"/><path class="cls-5" d="M345.18,536.5l-2.56-18.18a8.74,8.74,0,0,1-7.53-5.38l-20.2,3.87,26.3,21.94A10.59,10.59,0,0,1,345.18,536.5Z" transform="translate(-2 -101.18)"/><path class="cls-6" d="M294.07,339.12a8.42,8.42,0,0,1-3.15-.61l-39.08,58.55,62.23-50.17-14.23-10.05A8.45,8.45,0,0,1,294.07,339.12Z" transform="translate(-2 -101.18)"/><path class="cls-6" d="M289.44,306.79l4.16,15.4.48,0a8.48,8.48,0,0,1,8.48,8.48,8.3,8.3,0,0,1-.69,3.35l15,10.62,13.28-10.71-21.82-29.37Z" transform="translate(-2 -101.18)"/><path class="cls-6" d="M369.81,381.41c1.82-13.44-6.61-34.07-19.23-59.48L335,334.51Z" transform="translate(-2 -101.18)"/><polygon class="cls-6" points="317.86 245.52 359.48 274.87 330.25 235.53 317.86 245.52"/><path class="cls-6" d="M254,399.81a11.66,11.66,0,0,1,.95,2.1l110-19.15L317,349Z" transform="translate(-2 -101.18)"/><path class="cls-6" d="M264.57,309.77,261,328l24.84.64a8.45,8.45,0,0,1,4.4-5.58l-4.3-15.89Z" transform="translate(-2 -101.18)"/><path class="cls-6" d="M332.89,331.71,348.7,319a1.8,1.8,0,0,1,.31-.2c-2.9-5.77-6-11.79-9.23-18l-27.43,3.29Z" transform="translate(-2 -101.18)"/><path class="cls-6" d="M233.93,433.85,201.4,402.7a9.38,9.38,0,0,1-5.47,1.77,7.15,7.15,0,0,1-.93-.05l-10.57,36.11C198.44,439.37,215.67,437.05,233.93,433.85Z" transform="translate(-2 -101.18)"/><path class="cls-6" d="M247.94,394.77c.32.12.65.25,1,.4L288,336.56a8.49,8.49,0,0,1-2.28-4.4l-25.43-.65Z" transform="translate(-2 -101.18)"/><path class="cls-6" d="M110.4,426.12a1.55,1.55,0,0,1-.14.43c19.68,9,40.07,14.81,56.62,14.82,3.46,0,7.4-.14,11.72-.42l-66.15-26.82Z" transform="translate(-2 -101.18)"/><polygon class="cls-6" points="116.06 280.07 111.04 309.43 176.97 336.16 152.92 287.44 116.06 280.07"/><path class="cls-6" d="M235.61,397.8a11.45,11.45,0,0,1,8.44-3.71l.47,0,12.25-62.68-66.06-1.7,4.35,40.84Z" transform="translate(-2 -101.18)"/><polygon class="cls-6" points="188.35 225.04 255.46 226.77 258.93 209.03 187.55 217.57 188.35 225.04"/><path class="cls-6" d="M368.69,385.65l-113.15,19.7c0,.08,0,.15,0,.22a11.45,11.45,0,0,1-.12,1.56l39.63,11.77a1.74,1.74,0,0,1,1.19,1.22C332.68,410.23,363.08,398,368.69,385.65Z" transform="translate(-2 -101.18)"/><path class="cls-6" d="M285.05,254.75a11,11,0,0,1-.26,2.38l40.26,15.23c-7.33-14.34-14.8-29.43-21.75-45l-20.51,20.59A11.39,11.39,0,0,1,285.05,254.75Z" transform="translate(-2 -101.18)"/><path class="cls-6" d="M281.72,262.83l28.22,38,24.13-2.88L282,262.56Z" transform="translate(-2 -101.18)"/><polygon class="cls-6" points="136.93 220.1 183.72 214.51 182.01 198.47 136.93 220.1"/><path class="cls-6" d="M109.31,271.18l13.94,41.25a13.08,13.08,0,0,1,2.53-.25,9.08,9.08,0,0,1,.91.05l11.25-55.89-25.79,9c0,.14,0,.28,0,.42A6.53,6.53,0,0,1,109.31,271.18Z" transform="translate(-2 -101.18)"/><path class="cls-6" d="M44.1,323.09l-7.69-14.82a117.42,117.42,0,0,0-2.75,25Z" transform="translate(-2 -101.18)"/><path class="cls-6" d="M38.55,304.84l8.16,15.71,27.68-26.87L48.17,276.06A131.61,131.61,0,0,0,37.42,304,1.62,1.62,0,0,1,38.55,304.84Z" transform="translate(-2 -101.18)"/><path class="cls-6" d="M267.38,199.11l6.29,44.14a11.36,11.36,0,0,1,6.64,2.22l21-21.06a1.89,1.89,0,0,1,.54-.36q-2.35-5.36-4.61-10.79c-5.81-14-10.68-25.4-14.91-34.8l-10.75,9.42a7.85,7.85,0,0,1,1,3.79A8,8,0,0,1,267.38,199.11Z" transform="translate(-2 -101.18)"/><path class="cls-6" d="M159.23,389.48l22.92,46.41,9.51-32.46a9.42,9.42,0,0,1-5.15-8.39v-.1Z" transform="translate(-2 -101.18)"/><path class="cls-6" d="M239.26,416a11.51,11.51,0,0,1-6.7-10.43c0-.24,0-.47,0-.72l-28-6.13a9.62,9.62,0,0,1-.78,1.45l31.36,30Z" transform="translate(-2 -101.18)"/><path class="cls-6" d="M233.34,401.44c.1-.25.21-.5.33-.74l-38.11-25.62,1.12,10.57a9.42,9.42,0,0,1,8.67,9.38c0,.09,0,.19,0,.27Z" transform="translate(-2 -101.18)"/><path class="cls-6" d="M254.43,410.49A11.39,11.39,0,0,1,242.6,417L238,433.13c17.63-3.19,36.06-7.17,53.35-11.69Z" transform="translate(-2 -101.18)"/><path class="cls-6" d="M186.83,326.12l-.75-7-46.89,5.61a.32.32,0,0,0,0,.14Z" transform="translate(-2 -101.18)"/><path class="cls-6" d="M337.22,295.85c-3.36-6.47-6.84-13.15-10.37-20a1.75,1.75,0,0,1-1.7.27L286.76,261.6Z" transform="translate(-2 -101.18)"/><path class="cls-6" d="M191.28,368l-4.08-38.38L139,328.38a13.74,13.74,0,0,1-1.3,3.59Z" transform="translate(-2 -101.18)"/><path class="cls-6" d="M273.55,266.25a3.44,3.44,0,0,1-.46,0l-7.81,39.94L285,303.8l-10.18-37.63C274.41,266.21,274,266.25,273.55,266.25Z" transform="translate(-2 -101.18)"/><path class="cls-6" d="M130.12,312.91c.43.16.85.32,1.25.51l41.1-65.61a10.41,10.41,0,0,1-2.22-2.76l-28.47,10Z" transform="translate(-2 -101.18)"/><path class="cls-6" d="M104.64,259.35a6.64,6.64,0,0,1,1-.09,6.55,6.55,0,0,1,5.36,2.81l27.73-9.69,3.3-16.45L90.4,227.87Z" transform="translate(-2 -101.18)"/><path class="cls-6" d="M115.43,317a13.65,13.65,0,0,1,4.5-3.5L106,272.3l-.36,0a6.63,6.63,0,0,1-3.29-.89L79.91,293.19Z" transform="translate(-2 -101.18)"/><path class="cls-6" d="M169.49,236.69a10.46,10.46,0,0,1,9.92-7.16l.55,0,8.57-38.38-29.35-22.7-13,64.56Z" transform="translate(-2 -101.18)"/><path class="cls-6" d="M48.4,323.77l4.07,7.85,59.9-7.17a13.39,13.39,0,0,1,1.2-4.47L77.36,295.64Z" transform="translate(-2 -101.18)"/><path class="cls-6" d="M189.36,187.41l10.5-47.06c-12.85,6-26.6,14.31-40.35,24Z" transform="translate(-2 -101.18)"/><path class="cls-6" d="M142.57,251l26.53-9.28a9.69,9.69,0,0,1-.15-1.63l-23.45-3.66Z" transform="translate(-2 -101.18)"/><path class="cls-6" d="M142.73,232.51l13.21-65.65A564.33,564.33,0,0,0,89,224.11Z" transform="translate(-2 -101.18)"/><polygon class="cls-6" points="36.6 232.1 46.77 230.89 43.78 225.13 36.6 232.1"/><path class="cls-6" d="M50,273l27,18.15,23-22.28a6.37,6.37,0,0,1-.81-3.13,6.51,6.51,0,0,1,2.35-5L86.17,227c-7.64,7.79-14.24,15-19.37,21.2a159.37,159.37,0,0,0-17,24.79A.64.64,0,0,0,50,273Z" transform="translate(-2 -101.18)"/><path class="cls-6" d="M259.64,185.32,234.47,131.7a1.81,1.81,0,0,1-.16-.75c-9,0-19.44,2.86-30.68,7.71Z" transform="translate(-2 -101.18)"/><path class="cls-6" d="M52.81,387.29l11.31-12.82A7.73,7.73,0,0,1,65.38,364l-14.9-28.66-16.77,2a110.47,110.47,0,0,0,4,26C39.85,371.1,45.24,379.26,52.81,387.29Z" transform="translate(-2 -101.18)"/><path class="cls-6" d="M262.86,183.92a7.53,7.53,0,0,1,1.71-.18,7.94,7.94,0,0,1,4.68,1.53l11.16-9.77a1.48,1.48,0,0,1,.43-.27c-17.51-38.31-23.43-39.94-38.31-43.42a32.35,32.35,0,0,0-4.49-.71Z" transform="translate(-2 -101.18)"/><path class="cls-6" d="M109.74,409.26l4.9-28.7-37.16-7.43a7.76,7.76,0,0,1-10.75,3.63L57,387.86Z" transform="translate(-2 -101.18)"/><path class="cls-6" d="M187,294.35l75.58-36.27a11.54,11.54,0,0,1-.5-3.34v0l-72.7-11.38a10.46,10.46,0,0,1-7.1,6.75Z" transform="translate(-2 -101.18)"/><path class="cls-6" d="M183.37,230.31a10.53,10.53,0,0,1,4.17,3.08l32.05-18.19-28-21.67Z" transform="translate(-2 -101.18)"/><path class="cls-6" d="M175.42,249.69l-41.08,65.58a13.72,13.72,0,0,1,2.71,3L183.62,296l-4.85-45.52A10.42,10.42,0,0,1,175.42,249.69Z" transform="translate(-2 -101.18)"/><path class="cls-6" d="M264.06,261.23,187.35,298l1.84,17.23,72.44-8.67,8-41.05A11.55,11.55,0,0,1,264.06,261.23Z" transform="translate(-2 -101.18)"/><path class="cls-6" d="M189.25,236.43a10.94,10.94,0,0,1,.64,3.45l72.7,11.38a10.58,10.58,0,0,1,.91-2.1l-40.92-31.65Z" transform="translate(-2 -101.18)"/><path class="cls-6" d="M157.29,385.53l29.91,6a9.46,9.46,0,0,1,6-5.5l-1.44-13.47-56.15-37.73a13.11,13.11,0,0,1-2.37,2Z" transform="translate(-2 -101.18)"/><path class="cls-6" d="M109.13,412.79l-51.89-21c13.06,12.45,31,24.3,49.8,33.28Z" transform="translate(-2 -101.18)"/><path class="cls-6" d="M125.78,339.12l-.53,0-6.61,38.71L153,384.67l-22.84-46.28A13.31,13.31,0,0,1,125.78,339.12Z" transform="translate(-2 -101.18)"/><path class="cls-6" d="M258.69,197l-32.82,18.63,39.77,30.76a11.26,11.26,0,0,1,4.58-2.68l-6.28-44.13A8,8,0,0,1,258.69,197Z" transform="translate(-2 -101.18)"/><path class="cls-6" d="M278.2,265.26l10.31,38.13L306,301.31l-27-36.39Z" transform="translate(-2 -101.18)"/><path class="cls-6" d="M202.93,142.62l-10.52,47.16,30.46,23.56L257,194a8,8,0,0,1-.35-2.3,7.84,7.84,0,0,1,.88-3.62Z" transform="translate(-2 -101.18)"/><path class="cls-6" d="M54.19,334.93l14.29,27.5a7.71,7.71,0,0,1,6.74,1.42l39.06-31.23a13.25,13.25,0,0,1-1.76-4.67Z" transform="translate(-2 -101.18)"/><path class="cls-6" d="M77.4,366.59a7.58,7.58,0,0,1,.75,3.12l37.07,7.41,6.59-38.6a13.43,13.43,0,0,1-5.36-3.18Z" transform="translate(-2 -101.18)"/><path class="cls-1" d="M486.63,215.09a8.81,8.81,0,0,1-1.61,2.55l20.77,29,24-17.29a13.45,13.45,0,0,1-1.64-6.47c0-.2,0-.4,0-.59Z" transform="translate(-2 -101.18)"/><path class="cls-1" d="M513.48,317.22l-68.54-7.79a18,18,0,0,1-.83,2.76l62.13,30.88Z" transform="translate(-2 -101.18)"/><path class="cls-1" d="M414.46,319l-31.8,27.89a2.38,2.38,0,0,1-.3.18c11.7,20,22.95,37.11,32.4,47.78a59,59,0,0,0,10.5,8.79V323.89A18.44,18.44,0,0,1,414.46,319Z" transform="translate(-2 -101.18)"/><path class="cls-1" d="M555.31,222.92a13.4,13.4,0,0,1-.32,2.92l35.2,12.69L621,168.11l-67.31,48.36A13.43,13.43,0,0,1,555.31,222.92Z" transform="translate(-2 -101.18)"/><path class="cls-1" d="M541.73,236.51a15.7,15.7,0,0,1-2-.15l-11.65,41.55L553.21,313a8.09,8.09,0,0,1,3.12-.64,8.42,8.42,0,0,1,1.52.15l23-52.63-30.22-26.71A13.48,13.48,0,0,1,541.73,236.51Z" transform="translate(-2 -101.18)"/><path class="cls-1" d="M582.35,256.49l6.45-14.74-35-12.62a11.08,11.08,0,0,1-.83,1.41Z" transform="translate(-2 -101.18)"/><path class="cls-1" d="M536.41,235.43a13.62,13.62,0,0,1-4.57-3.21l-24,17.3,17.7,24.75Z" transform="translate(-2 -101.18)"/><path class="cls-1" d="M380.62,344l31.55-27.66a18.23,18.23,0,0,1-3.48-10.71,18.45,18.45,0,0,1,.9-5.64L342,270.72C354.1,295.45,367.58,321.45,380.62,344Z" transform="translate(-2 -101.18)"/><path class="cls-1" d="M414.15,292.6l-51.37-63.14-19.54,38L411,296.77A18.72,18.72,0,0,1,414.15,292.6Z" transform="translate(-2 -101.18)"/><path class="cls-1" d="M476.34,220l-39,70.5a18.6,18.6,0,0,1,3.41,3L503,248.72l-20.79-29.05a8.24,8.24,0,0,1-3.37.71A8.38,8.38,0,0,1,476.34,220Z" transform="translate(-2 -101.18)"/><path class="cls-1" d="M526.92,282.21l-9,32,30.84,3.5a8,8,0,0,1,1.6-2.71Z" transform="translate(-2 -101.18)"/><path class="cls-1" d="M550,325.24a7.88,7.88,0,0,1-1.65-4.06L517,317.62l-7.58,27,17.5,8.69Z" transform="translate(-2 -101.18)"/><path class="cls-1" d="M483.1,156.35l50.82,55.47A13.48,13.48,0,0,1,546,210L577.31,145Z" transform="translate(-2 -101.18)"/><path class="cls-1" d="M480.54,203.69a8.46,8.46,0,0,1,6.68,7.95l41.52,7.24a13.83,13.83,0,0,1,2.6-4.71l-50.8-55.44v45Z" transform="translate(-2 -101.18)"/><path class="cls-1" d="M445.34,305.64c0,.11,0,.21,0,.33l69.11,7.85,9.88-35.24-19.32-27L442.81,296.4A18.13,18.13,0,0,1,445.34,305.64Z" transform="translate(-2 -101.18)"/><path class="cls-1" d="M765.46,334.9a202.26,202.26,0,0,0-11.29-37.65l-17.56,19.66a8.8,8.8,0,0,1,1.63,7Z" transform="translate(-2 -101.18)"/><path class="cls-1" d="M696.3,289.3a5.93,5.93,0,0,1-4.74-2.38l-42.9,15.7a13.42,13.42,0,0,1-1.55,9.93l68.71,53.19A10.4,10.4,0,0,1,722.5,363l4.16-32.28a8.89,8.89,0,0,1-4.15-13.95L698.7,288.79A5.87,5.87,0,0,1,696.3,289.3Z" transform="translate(-2 -101.18)"/><path class="cls-1" d="M701.33,286.53l23.82,28a8.71,8.71,0,0,1,4.33-1.13,8.86,8.86,0,0,1,4.51,1.23l16.13-18-48.61-10.33C701.45,286.31,701.4,286.43,701.33,286.53Z" transform="translate(-2 -101.18)"/><path class="cls-1" d="M387.09,157a10.57,10.57,0,0,1,3.86-2l-5.62-52.54-4.32-.22-35.58,17.51Z" transform="translate(-2 -101.18)"/><path class="cls-1" d="M593.5,239.72l28.66,10.34a7,7,0,0,1,4.18-3.47l-2.67-75.87Z" transform="translate(-2 -101.18)"/><polygon class="cls-1" points="298.96 36.59 337.25 17.76 323.97 5.89 298.96 36.59"/><path class="cls-1" d="M350.17,208.45l35.07-36.63a10.63,10.63,0,0,1-.48-12.19l-42.71-38.17-44.76,22Z" transform="translate(-2 -101.18)"/><path class="cls-1" d="M765.19,338.55l-28.26-11.41a8.93,8.93,0,0,1-6.82,4L726,363.41a10.52,10.52,0,0,1,7.43,10,9.4,9.4,0,0,1-.15,1.69l34.11,11.67a121.56,121.56,0,0,0,1.34-18.5,175.48,175.48,0,0,0-2.56-29.65A1.71,1.71,0,0,1,765.19,338.55Z" transform="translate(-2 -101.18)"/><path class="cls-1" d="M632.59,247.73l22.82-21.56-28.25-55.38,2.66,75.66A6.83,6.83,0,0,1,632.59,247.73Z" transform="translate(-2 -101.18)"/><path class="cls-1" d="M583.63,262.28l-22.57,51.61a8.07,8.07,0,0,1,2.63,3.31l58-10.79c0-.26,0-.5,0-.76A13.59,13.59,0,0,1,624,298Z" transform="translate(-2 -101.18)"/><path class="cls-1" d="M631.33,318.71a13.73,13.73,0,0,1-9-8.88l-58,10.79c0,.14,0,.28,0,.42l63.19,20.14Z" transform="translate(-2 -101.18)"/><polygon class="cls-1" points="433.21 57.44 473.93 52.52 435.28 10.33 433.21 57.44"/><path class="cls-1" d="M621.37,253.48l-29.28-10.55-7,16,41.25,36.43a13.6,13.6,0,0,1,5.44-2.91l-4.37-32.27A7,7,0,0,1,621.37,253.48Z" transform="translate(-2 -101.18)"/><path class="cls-1" d="M434,185.42l38.37,21a8.46,8.46,0,0,1,4.64-2.76V157.07l-42,5.08Z" transform="translate(-2 -101.18)"/><path class="cls-1" d="M630.25,345.73l-6.82,40a16,16,0,0,1,10.51,9.6l78.53-20.89a7.78,7.78,0,0,1-.05-1,10.43,10.43,0,0,1,.12-1.48Z" transform="translate(-2 -101.18)"/><path class="cls-1" d="M627.82,164.38l30.23,59.28,24.59-23.24A329.67,329.67,0,0,0,627.82,164.38Z" transform="translate(-2 -101.18)"/><path class="cls-1" d="M629.48,413.16a16,16,0,0,1-26.37-10.8l-98-2.71a14.61,14.61,0,0,1-.43,1.79L628,461.92l26.54-25.42Z" transform="translate(-2 -101.18)"/><path class="cls-1" d="M503.12,404.6a12.52,12.52,0,0,1-10.35,5.49,11.52,11.52,0,0,1-1.45-.09l-5.88,22.36c0,.06-.06.11-.07.17,40,14.92,90.9,28,138.44,31.23Z" transform="translate(-2 -101.18)"/><path class="cls-1" d="M714.24,379.33a9.74,9.74,0,0,1-.86-1.55l-78.55,20.89a15.59,15.59,0,0,1-3,11.94l25.23,23.49Z" transform="translate(-2 -101.18)"/><path class="cls-1" d="M717.14,382.18c-.17-.1-.32-.22-.48-.33l-57,54.62,23.75,22.1Z" transform="translate(-2 -101.18)"/><path class="cls-1" d="M478.7,151.55l25.22-32c-22.8-5.33-45-9.24-65.51-12Z" transform="translate(-2 -101.18)"/><path class="cls-1" d="M429.56,287.51a17.65,17.65,0,0,1,4.74,1.33l39-70.52a8.42,8.42,0,0,1-2.92-6.36,8.52,8.52,0,0,1,.36-2.44l-36.86-20.2Z" transform="translate(-2 -101.18)"/><path class="cls-1" d="M301.88,179.51c2.62,8.6,11.29,29.47,23.11,55.26L347.75,211l-53.09-65.25C295.27,157.52,298.89,169.69,301.88,179.51Z" transform="translate(-2 -101.18)"/><path class="cls-1" d="M342.63,117.27,373.71,102c-15.87-.51-28.57-.16-36.91.71a89.61,89.61,0,0,0-8.92,1.38Z" transform="translate(-2 -101.18)"/><path class="cls-1" d="M322.92,105.29c-21,6-27.71,19.63-28.32,34.75Z" transform="translate(-2 -101.18)"/><path class="cls-1" d="M740.59,436.4l-16.28-52.59a10.71,10.71,0,0,1-1.39.11,10.28,10.28,0,0,1-2.57-.34l-34.26,77.55c21.64-3.95,40.6-11.61,54.89-24.1A1.28,1.28,0,0,1,740.59,436.4Z" transform="translate(-2 -101.18)"/><path class="cls-1" d="M766.52,390.21l-34.39-11.76a10.61,10.61,0,0,1-4.5,4.35l16,51.79c11.52-11.06,19.62-25.62,23.11-44.33A2.38,2.38,0,0,1,766.52,390.21Z" transform="translate(-2 -101.18)"/><path class="cls-1" d="M657.12,438.89l-26.37,25.28a252.82,252.82,0,0,0,51.07-2.29Z" transform="translate(-2 -101.18)"/><path class="cls-1" d="M700.44,279a6.05,6.05,0,0,1,1.8,3.8l50.37,10.7a261.49,261.49,0,0,0-19-36,212.65,212.65,0,0,0-13-18.51Z" transform="translate(-2 -101.18)"/><path class="cls-1" d="M507.17,121.11,482,153l94.75-11.44a579.57,579.57,0,0,0-69.29-21.09A1.72,1.72,0,0,1,507.17,121.11Z" transform="translate(-2 -101.18)"/><path class="cls-1" d="M685.19,202.81l-25.36,24,34.71,50.85a5.29,5.29,0,0,1,2.78-.2l20.56-40.74a1.65,1.65,0,0,1,.47-.57,246.92,246.92,0,0,0-33-33.46A.79.79,0,0,1,685.19,202.81Z" transform="translate(-2 -101.18)"/><path class="cls-1" d="M394.43,154.66a10.57,10.57,0,0,1,4.16,1.11L433.75,107c-16.25-2.08-31.39-3.45-44.88-4.26Z" transform="translate(-2 -101.18)"/><path class="cls-1" d="M549.15,211.55a14,14,0,0,1,2.5,2.11l71.77-51.57a447.15,447.15,0,0,0-41.51-18.6Z" transform="translate(-2 -101.18)"/><path class="cls-1" d="M480.66,400.66l-51.31,5.62c12.58,7.93,30.95,16.72,52.75,25l5.83-22.19A12.53,12.53,0,0,1,480.66,400.66Z" transform="translate(-2 -101.18)"/><path class="cls-1" d="M327,237.69a1.68,1.68,0,0,1-.54.37c4.14,9,8.65,18.5,13.39,28.28l20.5-39.81L350,213.73Z" transform="translate(-2 -101.18)"/><path class="cls-1" d="M390.52,175.59l-26,50.5,52.33,64.31a18.16,18.16,0,0,1,9.2-3l4.39-99.91L402.24,172a10.68,10.68,0,0,1-8.44,4.12A10.52,10.52,0,0,1,390.52,175.59Z" transform="translate(-2 -101.18)"/><path class="cls-1" d="M428.75,402.83l51.52-5.65a12.46,12.46,0,0,1,3.88-8.65l-48-67a18.32,18.32,0,0,1-7.44,2.4Z" transform="translate(-2 -101.18)"/><path class="cls-1" d="M404.12,162.37,431.7,159l2-46.06L401.43,157.8A10.74,10.74,0,0,1,404.12,162.37Z" transform="translate(-2 -101.18)"/><path class="cls-1" d="M403.94,168.93l26.69,14.63.92-21-27,3.26A10.58,10.58,0,0,1,403.94,168.93Z" transform="translate(-2 -101.18)"/><polygon class="cls-1" points="360.13 121.95 384.8 74.06 350.4 110 360.13 121.95"/><path class="cls-1" d="M619,385.07c.33,0,.64,0,1,.05l6.92-40.46-63.66-20.29a8,8,0,0,1-6.9,4,7.79,7.79,0,0,1-3.61-.87l-22.61,27.47,75.46,37.49A16,16,0,0,1,619,385.07Z" transform="translate(-2 -101.18)"/><path class="cls-1" d="M713.67,368.5,645,315.32a13.64,13.64,0,0,1-9.65,4c-.18,0-.37,0-.56,0l-3.92,23,82.76,26.38A.52.52,0,0,1,713.67,368.5Z" transform="translate(-2 -101.18)"/><path class="cls-1" d="M634.75,250.49a7,7,0,0,1-3.87,9.29l4.36,32.2h.09a13.67,13.67,0,0,1,12.13,7.38l42.9-15.7a3.31,3.31,0,0,1,0-.33,5.88,5.88,0,0,1,1.34-3.72l-34.38-50.39Z" transform="translate(-2 -101.18)"/><path class="cls-1" d="M603.2,398.88a16.54,16.54,0,0,1,.83-3.31l-76.18-37.86L502,389.14a12.47,12.47,0,0,1,3.22,7Z" transform="translate(-2 -101.18)"/><path class="cls-1" d="M494.42,385.19l10.85-38.71-62.73-31.17a17.88,17.88,0,0,1-3.52,4.13l48,67.05a12.39,12.39,0,0,1,5.78-1.43A14.88,14.88,0,0,1,494.42,385.19Z" transform="translate(-2 -101.18)"/><path class="cls-1" d="M524.64,356.1l-16.18-8-10.67,38.06a14.15,14.15,0,0,1,1.49.79Z" transform="translate(-2 -101.18)"/></g></svg>